<svg width="13" height="13" viewBox="0 0 13 13" fill="none" xmlns="http://www.w3.org/2000/svg">
<path d="M4.5 2.5H5.16667C5.52029 2.5 5.85943 2.64048 6.10948 2.89052C6.35952 3.14057 6.5 3.47971 6.5 3.83333L6.5 9.16667C6.5 9.52029 6.35952 9.85943 6.10948 10.1095C5.85943 10.3595 5.52029 10.5 5.16667 10.5H4.5M8.5 6.5H6.5M3.16667 0.5C3.52029 0.5 3.85943 0.640476 4.10948 0.890524C4.35952 1.14057 4.5 1.47971 4.5 1.83333V3.16667C4.5 3.52029 4.35952 3.85943 4.10948 4.10948C3.85943 4.35952 3.52029 4.5 3.16667 4.5H1.83333C1.47971 4.5 1.14057 4.35952 0.890525 4.10948C0.640476 3.85943 0.5 3.52029 0.5 3.16667V1.83333C0.5 1.47971 0.640476 1.14057 0.890525 0.890524C1.14057 0.640476 1.47971 0.5 1.83333 0.5L3.16667 0.5ZM3.16667 8.5C3.52029 8.5 3.85943 8.64048 4.10948 8.89052C4.35952 9.14057 4.5 9.47971 4.5 9.83333V11.1667C4.5 11.5203 4.35952 11.8594 4.10948 12.1095C3.85943 12.3595 3.52029 12.5 3.16667 12.5H1.83333C1.47971 12.5 1.14057 12.3595 0.890525 12.1095C0.640476 11.8594 0.5 11.5203 0.5 11.1667V9.83333C0.5 9.47971 0.640476 9.14057 0.890525 8.89052C1.14057 8.64048 1.47971 8.5 1.83333 8.5H3.16667ZM11.1667 4.5C11.5203 4.5 11.8594 4.64048 12.1095 4.89052C12.3595 5.14057 12.5 5.47971 12.5 5.83333V7.16667C12.5 7.52029 12.3595 7.85943 12.1095 8.10948C11.8594 8.35952 11.5203 8.5 11.1667 8.5H9.83333C9.47971 8.5 9.14057 8.35952 8.89052 8.10948C8.64048 7.85943 8.5 7.52029 8.5 7.16667V5.83333C8.5 5.47971 8.64048 5.14057 8.89052 4.89052C9.14057 4.64048 9.47971 4.5 9.83333 4.5H11.1667Z" stroke="#685FFF" stroke-linecap="round" stroke-linejoin="round"/>
</svg>
