<svg width="17" height="17" viewBox="0 0 17 17" fill="none" xmlns="http://www.w3.org/2000/svg">
    <path d="M0.5 8.5H16.5M8.5 8.5V11.7M12.5 4.5C12.5 3.43913 12.0786 2.42172 11.3284 1.67157C10.5783 0.921427 9.56087 0.5 8.5 0.5C7.43913 0.5 6.42172 0.921427 5.67157 1.67157C4.92143 2.42172 4.5 3.43913 4.5 4.5M1.5 16.5H15.5C16.0523 16.5 16.5 16.0523 16.5 15.5V5.5C16.5 4.94772 16.0523 4.5 15.5 4.5H1.5C0.947715 4.5 0.5 4.94772 0.5 5.5V15.5C0.5 16.0523 0.947715 16.5 1.5 16.5Z" stroke="currentColor"/>
</svg>
