<svg width="16" height="14" viewBox="0 0 16 14" fill="none" xmlns="http://www.w3.org/2000/svg">
    <path d="M10.4 0C10.8243 0 11.2313 0.163888 11.5314 0.455612C11.8314 0.747335 12 1.143 12 1.55556V4.66667H13.6C14.0243 4.66667 14.4313 4.83056 14.7314 5.12228C15.0314 5.414 15.2 5.80966 15.2 6.22222V12.4444C15.4122 12.4444 15.6157 12.5264 15.7657 12.6722C15.9157 12.8181 16 13.0159 16 13.2222C16 13.4285 15.9157 13.6263 15.7657 13.7722C15.6157 13.9181 15.4122 14 15.2 14H0.8C0.587827 14 0.384344 13.9181 0.234315 13.7722C0.0842854 13.6263 0 13.4285 0 13.2222C0 13.0159 0.0842854 12.8181 0.234315 12.6722C0.384344 12.5264 0.587827 12.4444 0.8 12.4444V4.66667C0.8 4.25411 0.968571 3.85845 1.26863 3.56672C1.56869 3.275 1.97565 3.11111 2.4 3.11111H4V1.55556C4 1.143 4.16857 0.747335 4.46863 0.455612C4.76869 0.163888 5.17565 0 5.6 0H10.4ZM4 4.5H2V12.4444H4V4.5ZM14 6H12V12.4444H14V6ZM11 1H5V12.4444H11V1ZM8.8 9.33333V10.8889H7.2V9.33333H8.8ZM8.8 6.22222V7.77778H7.2V6.22222H8.8ZM8.8 3.11111V4.66667H7.2V3.11111H8.8Z" fill="currentColor"/>
</svg>
