<svg width="11" height="12" viewBox="0 0 11 12" fill="none" xmlns="http://www.w3.org/2000/svg">
    <path d="M7.60254 0C7.97073 0 8.26953 0.298802 8.26953 0.666992V1.06641H9.20312C10.1605 1.06651 10.9375 1.84334 10.9375 2.80078V10.2695C10.9374 11.2269 10.1605 12.0038 9.20312 12.0039H1.73438C0.776954 12.0039 0.000133669 11.2269 0 10.2695V2.80078C0 1.84328 0.776872 1.06641 1.73438 1.06641H2.66797V0.666992C2.66797 0.298802 2.96677 0 3.33496 0C3.70294 0.000249761 4.00195 0.298956 4.00195 0.666992V1.06641H6.93555V0.666992C6.93555 0.298812 7.23436 1.57465e-05 7.60254 0ZM1.33398 5.60156V10.2695C1.33412 10.4905 1.51333 10.6699 1.73438 10.6699H9.20312C9.42408 10.6698 9.60338 10.4905 9.60352 10.2695V5.60156H1.33398ZM1.73438 2.40039C1.51325 2.40039 1.33398 2.57966 1.33398 2.80078V4.26758H9.60352V2.80078C9.60352 2.57972 9.42416 2.40049 9.20312 2.40039H8.26953V2.80078C8.2693 3.16877 7.97058 3.46777 7.60254 3.46777C7.23451 3.46776 6.93578 3.16876 6.93555 2.80078V2.40039H4.00195V2.80078C4.00172 3.16862 3.7028 3.46752 3.33496 3.46777C2.96692 3.46777 2.6682 3.16877 2.66797 2.80078V2.40039H1.73438Z" fill="currentColor"/>
</svg>
