<svg width="16" height="16" viewBox="0 0 16 16" fill="none" xmlns="http://www.w3.org/2000/svg">
    <path d="M3.42857 0C2.51926 0 1.64719 0.361224 1.00421 1.00421C0.361224 1.64719 0 2.51926 0 3.42857V12.5714C0 13.4807 0.361224 14.3528 1.00421 14.9958C1.64719 15.6388 2.51926 16 3.42857 16H12.5714C13.4807 16 14.3528 15.6388 14.9958 14.9958C15.6388 14.3528 16 13.4807 16 12.5714V3.42857C16 2.51926 15.6388 1.64719 14.9958 1.00421C14.3528 0.361224 13.4807 0 12.5714 0H3.42857ZM11.8331 6.11886L7.26171 10.6903C7.20863 10.7435 7.14558 10.7857 7.07615 10.8145C7.00673 10.8433 6.93231 10.8582 6.85714 10.8582C6.78198 10.8582 6.70756 10.8433 6.63813 10.8145C6.56871 10.7857 6.50565 10.7435 6.45257 10.6903L4.16686 8.40457C4.05956 8.29727 3.99928 8.15174 3.99928 8C3.99928 7.84826 4.05956 7.70273 4.16686 7.59543C4.27416 7.48813 4.41968 7.42785 4.57143 7.42785C4.72317 7.42785 4.8687 7.48813 4.976 7.59543L6.85714 9.47771L11.024 5.30971C11.1313 5.20242 11.2768 5.14214 11.4286 5.14214C11.5803 5.14214 11.7258 5.20242 11.8331 5.30971C11.9404 5.41701 12.0007 5.56254 12.0007 5.71429C12.0007 5.86603 11.9404 6.01156 11.8331 6.11886Z" fill="currentColor"/>
</svg>
