<svg width="32" height="21" viewBox="0 0 32 21" fill="none" xmlns="http://www.w3.org/2000/svg">
    <path d="M16 2.625C19.4933 2.625 22.5067 5.06625 23.1867 8.43937L23.5867 10.4081L25.6267 10.5525C26.629 10.6189 27.5686 11.0565 28.2563 11.7773C28.944 12.4981 29.3289 13.4486 29.3333 14.4375C29.3333 16.6031 27.5333 18.375 25.3333 18.375H8C5.05333 18.375 2.66667 16.0256 2.66667 13.125C2.66667 10.4344 4.70667 8.19 7.41333 7.91437L8.84 7.77L9.50667 6.52313C10.12 5.34824 11.0506 4.36268 12.1963 3.67492C13.3419 2.98716 14.6581 2.62386 16 2.625ZM16 2.51654e-07C12.1467 2.51654e-07 8.8 2.1525 7.13333 5.3025C5.17365 5.51097 3.36134 6.42496 2.04465 7.86886C0.727961 9.31276 -0.000228936 11.1847 5.39903e-08 13.125C5.39903e-08 17.4694 3.58667 21 8 21H25.3333C29.0133 21 32 18.06 32 14.4375C32 10.9725 29.2667 8.16375 25.8 7.9275C25.3521 5.69325 24.1301 3.68138 22.3428 2.23551C20.5554 0.789643 18.3135 -0.000514818 16 2.51654e-07Z" fill="currentColor"/>
</svg>
