<svg width="18" height="18" viewBox="0 0 18 18" fill="none" xmlns="http://www.w3.org/2000/svg">
    <path d="M3.12292 11.3289L0.895462 9.10148C0.802318 9.00822 0.75 8.88181 0.75 8.75C0.75 8.61819 0.802318 8.49177 0.895462 8.39851L3.12292 6.17106C3.21618 6.07791 3.3426 6.0256 3.4744 6.0256C3.60621 6.0256 3.73263 6.07791 3.82589 6.17106L6.05334 8.39851C6.14649 8.49177 6.19881 8.61819 6.19881 8.75C6.19881 8.88181 6.14649 9.00822 6.05334 9.10148L3.82589 11.3289C3.73263 11.4221 3.60621 11.4744 3.4744 11.4744C3.3426 11.4744 3.21618 11.4221 3.12292 11.3289ZM8.39851 16.6045L6.17106 14.3771C6.12481 14.3309 6.08813 14.276 6.0631 14.2157C6.03807 14.1553 6.02518 14.0905 6.02518 14.0252C6.02518 13.9598 6.03807 13.8951 6.0631 13.8347C6.08813 13.7743 6.12481 13.7195 6.17106 13.6733L8.39851 11.4458C8.49177 11.3527 8.61819 11.3004 8.75 11.3004C8.88181 11.3004 9.00822 11.3527 9.10148 11.4458L11.3289 13.6733C11.3752 13.7195 11.4119 13.7743 11.4369 13.8347C11.4619 13.8951 11.4748 13.9598 11.4748 14.0252C11.4748 14.0905 11.4619 14.1553 11.4369 14.2157C11.4119 14.276 11.3752 14.3309 11.3289 14.3771L9.10148 16.6045C9.00822 16.6977 8.88181 16.75 8.75 16.75C8.61819 16.75 8.49177 16.6977 8.39851 16.6045ZM8.39851 6.05417L6.17106 3.82589C6.07791 3.73263 6.0256 3.60621 6.0256 3.4744C6.0256 3.3426 6.07791 3.21618 6.17106 3.12292L8.39851 0.895462C8.49177 0.802318 8.61819 0.75 8.75 0.75C8.88181 0.75 9.00822 0.802318 9.10148 0.895462L11.3289 3.12292C11.4221 3.21618 11.4744 3.3426 11.4744 3.4744C11.4744 3.60621 11.4221 3.73263 11.3289 3.82589L9.10148 6.05417C9.00822 6.14732 8.88181 6.19964 8.75 6.19964C8.61819 6.19964 8.49177 6.14732 8.39851 6.05417ZM13.6741 11.3289L11.4467 9.10148C11.3535 9.00822 11.3012 8.88181 11.3012 8.75C11.3012 8.61819 11.3535 8.49177 11.4467 8.39851L13.6741 6.17106C13.7674 6.07791 13.8938 6.0256 14.0256 6.0256C14.1574 6.0256 14.2838 6.07791 14.3771 6.17106L16.6045 8.39851C16.6977 8.49177 16.75 8.61819 16.75 8.75C16.75 8.88181 16.6977 9.00822 16.6045 9.10148L14.3771 11.3289C14.2838 11.4221 14.1574 11.4744 14.0256 11.4744C13.8938 11.4744 13.7674 11.4221 13.6741 11.3289Z" stroke="currentColor" stroke-width="1.5"/>
</svg>
