<svg width="10" height="10" viewBox="0 0 10 10" fill="none" xmlns="http://www.w3.org/2000/svg">
    <path d="M8 0C9.10457 0 10 0.895431 10 2V8C10 9.03565 9.21278 9.887 8.2041 9.98926L8 10H2L1.7959 9.98926C0.854346 9.8938 0.1062 9.14565 0.0107422 8.2041L0 8V2C0 0.895431 0.895431 1.61064e-08 2 0H8ZM2 1C1.44772 1 1 1.44772 1 2V8C1 8.55229 1.44772 9 2 9H8C8.55229 9 9 8.55228 9 8V2C9 1.44772 8.55228 1 8 1H2ZM5.78125 6.875H1.875V5.875H5.78125V6.875ZM8.125 5H1.875V4H8.125V5ZM8.125 3.125H1.875V2.125H8.125V3.125Z" fill="#D9D9DE"/>
</svg>
