<svg width="11" height="11" viewBox="0 0 11 11" fill="none" xmlns="http://www.w3.org/2000/svg">
<path fill-rule="evenodd" clip-rule="evenodd" d="M10.1121 8.90039C10.5262 8.90057 10.8621 9.23629 10.8621 9.65039C10.8621 10.0645 10.5262 10.4002 10.1121 10.4004H5.38066C4.96658 10.4002 4.63066 10.0645 4.63066 9.65039C4.63066 9.23627 4.96658 8.90055 5.38066 8.90039H10.1121ZM8.53496 0C8.76665 2.6355e-05 8.99667 0.0461163 9.21074 0.134766C9.42482 0.223466 9.62011 0.353718 9.78398 0.517578C9.94762 0.681325 10.0772 0.875983 10.1658 1.08984C10.2545 1.30398 10.3006 1.53385 10.3006 1.76562C10.3006 1.99735 10.2545 2.22732 10.1658 2.44141C10.0772 2.65523 9.94762 2.84996 9.78398 3.01367L3.21269 9.58398C3.12955 9.66713 3.02497 9.72625 2.91093 9.75488L0.807418 10.2812C0.586095 10.3364 0.351563 10.2716 0.190231 10.1104C0.028898 9.94902 -0.0358384 9.71453 0.0193324 9.49316L0.5457 7.38965C0.574327 7.27558 0.63343 7.17106 0.716598 7.08789L7.28691 0.517578C7.61783 0.186724 8.06702 0.000113324 8.53496 0Z" fill="#D9D9DE" fill-opacity="0.6"/>
</svg>
