<!-- Generated by IcoMoon.io -->
<svg version="1.1" xmlns="http://www.w3.org/2000/svg" width="2341" height="1024" viewBox="0 0 2341 1024">
<g id="icomoon-ignore">
</g>
<path d="M87.771 0h2165.029c48.475 0 87.771 39.297 87.771 87.771v117.029c0 48.475-39.297 87.771-87.771 87.771h-2165.029c-48.475 0-87.771-39.297-87.771-87.771v-117.029c0-48.475 39.297-87.771 87.771-87.771z"></path>
<path d="M438.857 438.857h1828.571c40.396 0 73.143 32.747 73.143 73.143v73.143c0 40.396-32.747 73.143-73.143 73.143h-1828.571c-40.396 0-73.143-32.747-73.143-73.143v-73.143c0-40.396 32.747-73.143 73.143-73.143z"></path>
<path d="M438.857 804.571h1828.571c40.396 0 73.143 32.747 73.143 73.143v73.143c0 40.396-32.747 73.143-73.143 73.143h-1828.571c-40.396 0-73.143-32.747-73.143-73.143v-73.143c0-40.396 32.747-73.143 73.143-73.143z"></path>
</svg>
