<svg width="13" height="13" viewBox="0 0 13 13" fill="none" xmlns="http://www.w3.org/2000/svg">
<path d="M4.5 0.833333V12.1667M0.5 4.76667C0.5 3.27333 0.5 2.52667 0.790667 1.956C1.04633 1.45426 1.45426 1.04633 1.956 0.790667C2.52667 0.5 3.27333 0.5 4.76667 0.5H8.23333C9.72667 0.5 10.4733 0.5 11.044 0.790667C11.5457 1.04633 11.9537 1.45426 12.2093 1.956C12.5 2.52667 12.5 3.27333 12.5 4.76667V8.23333C12.5 9.72667 12.5 10.4733 12.2093 11.044C11.9537 11.5457 11.5457 11.9537 11.044 12.2093C10.4733 12.5 9.72667 12.5 8.23333 12.5H4.76667C3.27333 12.5 2.52667 12.5 1.956 12.2093C1.45426 11.9537 1.04633 11.5457 0.790667 11.044C0.5 10.4733 0.5 9.72667 0.5 8.23333V4.76667Z" stroke="#685FFF" stroke-linecap="round" stroke-linejoin="round"/>
</svg>
