<svg width="38" height="49" viewBox="0 0 38 49" fill="none" xmlns="http://www.w3.org/2000/svg">
    <path d="M24.2857 0.5V11.1667C24.2857 11.8739 24.5642 12.5522 25.0598 13.0523C25.5554 13.5524 26.2276 13.8333 26.9286 13.8333H37.5M24.2857 0.5H5.78571C4.38386 0.5 3.03941 1.0619 2.04815 2.0621C1.05689 3.06229 0.5 4.41885 0.5 5.83333V43.1667C0.5 44.5812 1.05689 45.9377 2.04815 46.9379C3.03941 47.9381 4.38386 48.5 5.78571 48.5H32.2143C33.6161 48.5 34.9606 47.9381 35.9518 46.9379C36.9431 45.9377 37.5 44.5812 37.5 43.1667V13.8333M24.2857 0.5L37.5 13.8333" stroke="currentColor" stroke-opacity="0.6" stroke-linecap="round" stroke-linejoin="round"/>
</svg>
