<svg width="12" height="13" viewBox="0 0 12 13" fill="none" xmlns="http://www.w3.org/2000/svg">
<path d="M7.28571 0.5V3.16667C7.28571 3.34348 7.35344 3.51305 7.474 3.63807C7.59456 3.7631 7.75807 3.83333 7.92857 3.83333H10.5M7.28571 0.5H2.78571C2.44472 0.5 2.1177 0.640476 1.87658 0.890524C1.63546 1.14057 1.5 1.47971 1.5 1.83333V11.1667C1.5 11.5203 1.63546 11.8594 1.87658 12.1095C2.1177 12.3595 2.44472 12.5 2.78571 12.5H9.21429C9.55528 12.5 9.8823 12.3595 10.1234 12.1095C10.3645 11.8594 10.5 11.5203 10.5 11.1667V3.83333M7.28571 0.5L10.5 3.83333" stroke="currentColor" stroke-linecap="round" stroke-linejoin="round"/>
</svg>
