<svg width="38" height="49" viewBox="0 0 38 49" fill="none" xmlns="http://www.w3.org/2000/svg">
    <path d="M24.3838 0.00976562C24.4806 0.0291353 24.5701 0.077267 24.6406 0.148438L37.8555 13.4814C37.9481 13.575 37.9999 13.7014 38 13.833V43.167C37.9999 44.7125 37.3911 46.1958 36.3066 47.29C35.222 48.3843 33.7497 49 32.2139 49H5.78613C4.25033 49 2.77801 48.3843 1.69336 47.29C0.608906 46.1958 8.50926e-05 44.7125 0 43.167V5.83301C8.54681e-05 4.28747 0.608906 2.80418 1.69336 1.70996C2.77801 0.615671 4.25033 0 5.78613 0H24.2861L24.3838 0.00976562ZM5.78613 1C4.51834 1 3.30117 1.50814 2.40332 2.41406C1.5054 3.32007 1.00009 4.54981 1 5.83301V43.167C1.00009 44.4502 1.5054 45.6799 2.40332 46.5859C3.30117 47.4919 4.51835 48 5.78613 48H32.2139C33.4817 48 34.6988 47.4919 35.5967 46.5859C36.4946 45.6799 36.9999 44.4502 37 43.167V14.333H26.9287C26.0938 14.333 25.2941 13.9985 24.7051 13.4043C24.1163 12.8102 23.7862 12.0053 23.7861 11.167V1H5.78613ZM24.3408 23.5C24.6397 23.4916 24.9301 23.6028 25.1475 23.8076C25.3644 24.0125 25.4915 24.2948 25.5 24.5928C25.5085 24.8909 25.3976 25.1806 25.1924 25.3975L18.8018 32.1484C18.6982 32.2575 18.5734 32.3449 18.4355 32.4053C18.2978 32.4655 18.1494 32.4978 17.999 32.5C17.8483 32.5021 17.6982 32.4735 17.5586 32.417C17.4191 32.3605 17.2921 32.2771 17.1855 32.1709L13.8027 28.7949C13.6037 28.5818 13.495 28.3001 13.5 28.0088C13.5052 27.7173 13.6235 27.4386 13.8301 27.2324C14.0366 27.0264 14.3154 26.9086 14.6074 26.9033C14.8996 26.8982 15.1827 27.0063 15.3965 27.2051L17.96 29.7617L23.5537 23.8525C23.7591 23.6358 24.042 23.5084 24.3408 23.5ZM24.7861 11.167C24.7862 11.7429 25.0128 12.2943 25.415 12.7002C25.8173 13.106 26.3618 13.333 26.9287 13.333H36.2998L24.7861 1.71387V11.167Z" fill="currentColor"/>
</svg>
