<svg width="12" height="12" viewBox="0 0 12 12" fill="none" xmlns="http://www.w3.org/2000/svg">
<path d="M7.26855 0.162109C10.0187 0.773499 12 3.12582 12 5.98145C12 9.44809 9.07849 11.9814 6.01172 11.9814C5.80661 11.9801 2.42448 10.9209 2.41113 7.03027C2.40122 4.10974 4.2696 3.12049 5.57715 3.31055C5.56654 3.31741 4.25293 4.07401 4.25293 5.96289C4.25298 8.18843 5.9808 8.86955 6.0166 8.88281L6.01758 8.88379L6.0127 8.88574C7.97773 9.55339 9.94824 7.89258 9.94824 4.89355C9.94824 3.24329 9.21381 1.27825 7.26855 0.162109ZM5.9873 0C6.18839 0 9.57541 1.05819 9.58887 4.95117C9.59883 7.87161 7.73051 8.86166 6.42285 8.67188C6.43357 8.66486 7.74707 7.90735 7.74707 6.01855C7.74686 3.79617 6.02355 3.11361 5.9834 3.09863H5.98145L5.98633 3.09668C4.02139 2.42916 2.05097 4.08913 2.05078 7.08789C2.05078 8.73828 2.78586 10.7042 4.73145 11.8203C1.98111 11.209 0 8.85581 0 6C0.000162871 2.53358 2.9207 0.000118406 5.9873 0Z" fill="currentColor"/>
</svg>
