<svg width="10" height="10" viewBox="0 0 10 10" fill="none" xmlns="http://www.w3.org/2000/svg">
    <path fill-rule="evenodd" clip-rule="evenodd" d="M2.5 2.5V6.04167C2.5 6.82471 3.11715 7.46361 3.89158 7.4985L3.95833 7.5H7.5V8.75C7.5 9.44036 6.94036 10 6.25 10H1.25C0.559644 10 0 9.44036 0 8.75V3.75C0 3.05964 0.559644 2.5 1.25 2.5H2.5ZM9.0625 0C9.58027 0 10 0.419733 10 0.9375V5.9375C10 6.45527 9.58027 6.875 9.0625 6.875H4.0625C3.54473 6.875 3.125 6.45527 3.125 5.9375V0.9375C3.125 0.419733 3.54473 0 4.0625 0H9.0625Z" fill="currentColor"/>
</svg>
