<svg width="12" height="12" viewBox="0 0 12 12" fill="none" xmlns="http://www.w3.org/2000/svg">
<path d="M10.5 10.5V3.375L7.125 0H3C2.60218 0 2.22064 0.158035 1.93934 0.43934C1.65804 0.720644 1.5 1.10218 1.5 1.5V10.5C1.5 10.8978 1.65804 11.2794 1.93934 11.5607C2.22064 11.842 2.60218 12 3 12H9C9.39782 12 9.77936 11.842 10.0607 11.5607C10.342 11.2794 10.5 10.8978 10.5 10.5ZM7.125 2.25C7.125 2.54837 7.24353 2.83452 7.4545 3.0455C7.66548 3.25647 7.95163 3.375 8.25 3.375H9.75V10.5C9.75 10.6989 9.67098 10.8897 9.53033 11.0303C9.38968 11.171 9.19891 11.25 9 11.25H3C2.80109 11.25 2.61032 11.171 2.46967 11.0303C2.32902 10.8897 2.25 10.6989 2.25 10.5V1.5C2.25 1.30109 2.32902 1.11032 2.46967 0.96967C2.61032 0.829018 2.80109 0.75 3 0.75H7.125V2.25Z" fill="currentColor"/>
<path d="M3.45213 10.5652C3.30551 10.5075 3.18751 10.3943 3.12363 10.2502C2.97738 9.95924 3.02613 9.66824 3.18363 9.42374C3.33213 9.19349 3.57813 8.99774 3.85638 8.83349C4.20888 8.6337 4.58144 8.47155 4.96788 8.34974C5.2675 7.80991 5.53351 7.2521 5.76438 6.67949C5.62679 6.36652 5.51882 6.04135 5.44188 5.70824C5.37738 5.40824 5.35263 5.11124 5.40738 4.85624C5.46363 4.59074 5.61288 4.35224 5.89488 4.23899C6.03888 4.18124 6.19488 4.14899 6.34638 4.18124C6.42259 4.19747 6.49423 4.23045 6.55611 4.2778C6.61799 4.32515 6.66855 4.38567 6.70413 4.45499C6.77013 4.57799 6.79413 4.72199 6.79938 4.85849C6.80463 4.99949 6.79038 5.15549 6.76413 5.31899C6.70113 5.70149 6.56163 6.16949 6.37413 6.66449C6.58121 7.10692 6.82718 7.53008 7.10913 7.92899C7.44296 7.90294 7.77868 7.91553 8.10963 7.96649C8.38263 8.01599 8.66013 8.11274 8.82963 8.31524C8.91963 8.42324 8.97438 8.55524 8.97963 8.70374C8.98488 8.84774 8.94438 8.99024 8.87613 9.12599C8.81701 9.25179 8.72535 9.35951 8.61063 9.43799C8.49715 9.51177 8.36333 9.54798 8.22813 9.54149C7.97988 9.53099 7.73763 9.39449 7.52838 9.22874C7.27388 9.01842 7.0446 8.77933 6.84513 8.51624C6.33797 8.57399 5.83682 8.67587 5.34738 8.82074C5.12328 9.21822 4.86745 9.59695 4.58238 9.95324C4.36338 10.2157 4.12563 10.4452 3.88713 10.5435C3.74997 10.605 3.59474 10.6127 3.45213 10.5652ZM4.48638 9.13949C4.36138 9.19699 4.24663 9.25649 4.14213 9.31799C3.89613 9.46349 3.73638 9.60524 3.65688 9.72824C3.58638 9.83699 3.58488 9.91574 3.62688 9.99899C3.63488 10.015 3.64138 10.026 3.64638 10.032L3.67263 10.023C3.77538 9.98099 3.93888 9.84674 4.14888 9.59399C4.26847 9.44789 4.38109 9.29622 4.48638 9.13949ZM5.71638 8.14199C5.96687 8.08377 6.21957 8.03548 6.47388 7.99724C6.33751 7.78814 6.2099 7.57345 6.09138 7.35374C5.97367 7.61965 5.84863 7.88225 5.71638 8.14124V8.14199ZM7.55088 8.47949C7.66388 8.60199 7.77263 8.70449 7.87713 8.78699C8.05713 8.92949 8.18238 8.97674 8.25063 8.97899C8.26892 8.98185 8.28762 8.97784 8.30313 8.96774C8.33451 8.94327 8.35883 8.91093 8.37363 8.87399C8.40019 8.82826 8.41536 8.77682 8.41788 8.72399C8.41711 8.70644 8.41021 8.68972 8.39838 8.67674C8.35938 8.63024 8.24838 8.56274 8.00988 8.51999C7.85812 8.495 7.70467 8.48171 7.55088 8.48024V8.47949ZM6.05838 5.84999C6.12094 5.64623 6.17103 5.43885 6.20838 5.22899C6.23138 5.08799 6.24088 4.97174 6.23688 4.88024C6.23727 4.82975 6.22916 4.77954 6.21288 4.73174C6.17532 4.7362 6.13866 4.74632 6.10413 4.76174C6.03888 4.78799 5.98563 4.84124 5.95713 4.97399C5.92713 5.11799 5.93463 5.32574 5.99163 5.59049C6.00963 5.67399 6.03213 5.76049 6.05913 5.84999H6.05838Z" fill="currentColor"/>
</svg>
