<svg width="15" height="9" viewBox="0 0 15 9" fill="none" xmlns="http://www.w3.org/2000/svg">
<path d="M14.25 1.5H0.75C0.551088 1.5 0.360322 1.42098 0.21967 1.28033C0.0790177 1.13968 0 0.948912 0 0.75C0 0.551088 0.0790177 0.360322 0.21967 0.21967C0.360322 0.0790175 0.551088 0 0.75 0H14.25C14.4489 0 14.6397 0.0790175 14.7803 0.21967C14.921 0.360322 15 0.551088 15 0.75C15 0.948912 14.921 1.13968 14.7803 1.28033C14.6397 1.42098 14.4489 1.5 14.25 1.5ZM11.75 5H3.25C3.05109 5 2.86032 4.92098 2.71967 4.78033C2.57902 4.63968 2.5 4.44891 2.5 4.25C2.5 4.05109 2.57902 3.86032 2.71967 3.71967C2.86032 3.57902 3.05109 3.5 3.25 3.5H11.75C11.9489 3.5 12.1397 3.57902 12.2803 3.71967C12.421 3.86032 12.5 4.05109 12.5 4.25C12.5 4.44891 12.421 4.63968 12.2803 4.78033C12.1397 4.92098 11.9489 5 11.75 5ZM8.75 8.5H6.25C6.05109 8.5 5.86032 8.42098 5.71967 8.28033C5.57902 8.13968 5.5 7.94891 5.5 7.75C5.5 7.55109 5.57902 7.36032 5.71967 7.21967C5.86032 7.07902 6.05109 7 6.25 7H8.75C8.94891 7 9.13968 7.07902 9.28033 7.21967C9.42098 7.36032 9.5 7.55109 9.5 7.75C9.5 7.94891 9.42098 8.13968 9.28033 8.28033C9.13968 8.42098 8.94891 8.5 8.75 8.5Z" fill="currentColor" fill-opacity="0.6"/>
<path d="M6.25 7.01562H8.75C8.94477 7.01562 9.13181 7.09275 9.26953 7.23047C9.40725 7.36819 9.48438 7.55523 9.48438 7.75C9.48438 7.94477 9.40725 8.13181 9.26953 8.26953C9.13181 8.40725 8.94477 8.48438 8.75 8.48438H6.25C6.05523 8.48438 5.86819 8.40725 5.73047 8.26953C5.59275 8.13181 5.51562 7.94477 5.51562 7.75C5.51562 7.55523 5.59275 7.36819 5.73047 7.23047C5.86819 7.09275 6.05523 7.01562 6.25 7.01562ZM3.25 3.51562H11.75C11.9448 3.51562 12.1318 3.59275 12.2695 3.73047C12.4073 3.86819 12.4844 4.05523 12.4844 4.25C12.4844 4.44477 12.4073 4.63181 12.2695 4.76953C12.1318 4.90725 11.9448 4.98438 11.75 4.98438H3.25C3.05523 4.98438 2.86819 4.90725 2.73047 4.76953C2.59275 4.63181 2.51562 4.44477 2.51562 4.25C2.51562 4.05523 2.59275 3.86819 2.73047 3.73047C2.86819 3.59275 3.05523 3.51562 3.25 3.51562ZM0.75 0.015625H14.25C14.4448 0.015625 14.6318 0.0927467 14.7695 0.230469C14.9073 0.368191 14.9844 0.555232 14.9844 0.75C14.9844 0.944768 14.9073 1.13181 14.7695 1.26953C14.6318 1.40725 14.4448 1.48438 14.25 1.48438H0.75C0.555232 1.48438 0.368191 1.40725 0.230469 1.26953C0.0927468 1.13181 0.015625 0.944768 0.015625 0.75C0.015625 0.555232 0.0927468 0.368191 0.230469 0.230469C0.368191 0.0927467 0.555232 0.015625 0.75 0.015625Z" stroke="currentColor" stroke-opacity="0.6" stroke-width="0.03125"/>
</svg>
