<svg width="12" height="12" viewBox="0 0 12 12" fill="none" xmlns="http://www.w3.org/2000/svg">
<path d="M11.8445 0.90617C11.8445 0.665887 11.749 0.435456 11.5791 0.26555C11.4092 0.0956442 11.1788 0.0001759 10.9385 0.000139627L3.68897 0.000139817C3.56867 -0.00195127 3.44915 0.0199386 3.33739 0.0645321C3.22564 0.109126 3.12388 0.17553 3.03806 0.259869C2.95224 0.344209 2.88408 0.444797 2.83755 0.555761C2.79102 0.666726 2.76706 0.785845 2.76706 0.90617C2.76706 1.02649 2.79102 1.14561 2.83755 1.25658C2.88408 1.36754 2.95224 1.46813 3.03806 1.55247C3.12388 1.63681 3.22564 1.70321 3.33739 1.74781C3.44915 1.7924 3.56867 1.81429 3.68897 1.8122L8.75095 1.8122L0.265409 10.2977C0.09547 10.4677 -1.06882e-06 10.6982 -1.06882e-06 10.9385C-1.406e-06 11.1788 0.0954703 11.4093 0.26541 11.5793C0.435349 11.7492 0.665835 11.8447 0.906166 11.8447C1.1465 11.8447 1.37698 11.7492 1.54692 11.5793L10.0325 3.09371L10.0325 8.1557C10.0366 8.39326 10.1339 8.6197 10.3033 8.78625C10.4728 8.95279 10.7009 9.04611 10.9385 9.04611C11.1761 9.04611 11.4042 8.95279 11.5737 8.78625C11.7431 8.6197 11.8404 8.39326 11.8445 8.15569L11.8445 0.90617Z" fill="#00BFA5"/>
</svg>
