<svg width="11" height="12" viewBox="0 0 11 12" fill="none" xmlns="http://www.w3.org/2000/svg">
<path d="M1.375 10.6286H3.4375V7.2C3.4375 7.00571 3.5035 6.84297 3.6355 6.71177C3.7675 6.58057 3.93067 6.51474 4.125 6.51428H6.875C7.06979 6.51428 7.23319 6.58011 7.36519 6.71177C7.49719 6.84343 7.56296 7.00617 7.5625 7.2V10.6286H9.625V4.45714L5.5 1.37143L1.375 4.45714V10.6286ZM0 10.6286V4.45714C0 4.24 0.0488124 4.03429 0.146437 3.84C0.244062 3.64571 0.378583 3.48571 0.55 3.36L4.675 0.274286C4.91562 0.0914286 5.19062 0 5.5 0C5.80937 0 6.08437 0.0914286 6.325 0.274286L10.45 3.36C10.6219 3.48571 10.7566 3.64571 10.8542 3.84C10.9519 4.03429 11.0005 4.24 11 4.45714V10.6286C11 11.0057 10.8652 11.3287 10.5957 11.5975C10.3262 11.8663 10.0027 12.0005 9.625 12H6.875C6.68021 12 6.51704 11.9342 6.3855 11.8025C6.25396 11.6709 6.18796 11.5081 6.1875 11.3143V7.88571H4.8125V11.3143C4.8125 11.5086 4.7465 11.6715 4.6145 11.8032C4.4825 11.9349 4.31933 12.0005 4.125 12H1.375C0.996875 12 0.673291 11.8658 0.40425 11.5975C0.135208 11.3291 0.000458333 11.0062 0 10.6286Z" fill="#685FFF"/>
</svg>
