<svg width="12" height="8" viewBox="0 0 12 8" fill="none" xmlns="http://www.w3.org/2000/svg">
<path d="M1.30819 0C0.961236 0 0.628493 0.140476 0.38316 0.390524C0.137827 0.640573 0 0.979711 0 1.33333V6.66667C0 7.02029 0.137827 7.35943 0.38316 7.60948C0.628493 7.85952 0.961236 8 1.30819 8H7.81328C8.13885 8.00013 8.45277 7.87652 8.69369 7.65333L11.5717 4.98667C11.7066 4.8617 11.8144 4.70937 11.8881 4.53946C11.9619 4.36955 12 4.1858 12 4C12 3.8142 11.9619 3.63045 11.8881 3.46054C11.8144 3.29063 11.7066 3.1383 11.5717 3.01333L8.69369 0.346667C8.45277 0.123477 8.13885 -0.000130321 7.81328 1.03107e-07L1.30819 0Z" fill="#D9D9DE"/>
</svg>
