<svg width="24" height="32" viewBox="0 0 24 32" fill="none" xmlns="http://www.w3.org/2000/svg">
    <path d="M14.2857 0H9.71428C7.13871 0.00255596 4.66938 0.991551 2.84817 2.74996C1.02696 4.50837 0.00264724 6.89255 0 9.37931V22.6207C0.00264724 25.1075 1.02696 27.4916 2.84817 29.25C4.66938 31.0084 7.13871 31.9974 9.71428 32H14.2857C16.8613 31.9974 19.3306 31.0084 21.1518 29.25C22.973 27.4916 23.9974 25.1075 24 22.6207V9.37931C23.9974 6.89255 22.973 4.50837 21.1518 2.74996C19.3306 0.991551 16.8613 0.00255596 14.2857 0ZM21.9048 22.6207C21.9039 23.3841 21.7752 24.1838 21.5044 25.053C20.8231 27.24 19.0275 28.9444 16.8329 29.6004C15.9256 29.8716 15.0641 30.0221 14.2857 30.023H9.71428C8.93594 30.0221 8.07441 29.8716 7.16715 29.6004C4.97253 28.9444 3.1769 27.24 2.49561 25.053C2.2248 24.1838 2.09614 23.3841 2.09524 22.6207V9.37931C2.09609 8.65193 2.25004 7.79295 2.51921 6.90734C3.17746 4.74159 4.97868 3.11404 7.13878 2.43749C8.05645 2.15006 8.92783 1.97787 9.71428 1.97701H14.2857C15.3588 1.97819 16.8665 2.26382 18.1766 2.75809C19.5016 3.25801 20.4903 4.35406 21.0331 5.6621C21.5732 6.96349 21.9035 8.31286 21.9048 9.37931V22.6207ZM13.7143 7.17241V13.7931C13.7143 14.2321 13.5337 14.6531 13.2122 14.9635C12.8907 15.2739 12.4547 15.4483 12 15.4483C11.5453 15.4483 11.1093 15.2739 10.7878 14.9635C10.4663 14.6531 10.2857 14.2321 10.2857 13.7931V7.17241C10.2857 6.73344 10.4663 6.31244 10.7878 6.00203C11.1093 5.69163 11.5453 5.51724 12 5.51724C12.4547 5.51724 12.8907 5.69163 13.2122 6.00203C13.5337 6.31244 13.7143 6.73344 13.7143 7.17241Z" fill="currentColor"/>
</svg>
