<svg width="12" height="8" viewBox="0 0 12 8" fill="none" xmlns="http://www.w3.org/2000/svg">
<path d="M1.30859 0.599609H7.81348C7.9863 0.59954 8.15512 0.665735 8.28613 0.787109L11.1641 3.45312C11.2375 3.52116 11.297 3.60503 11.3379 3.69922C11.3788 3.79349 11.4004 3.89613 11.4004 4C11.4004 4.10387 11.3788 4.20651 11.3379 4.30078C11.297 4.39497 11.2375 4.47884 11.1641 4.54688L8.28613 7.21289C8.15512 7.33427 7.9863 7.40046 7.81348 7.40039H1.30859C1.12456 7.40039 0.945238 7.32567 0.811523 7.18945C0.677487 7.05284 0.599694 6.86501 0.599609 6.66699V1.33301C0.599694 1.13499 0.677488 0.947159 0.811523 0.810547C0.945238 0.674332 1.12456 0.599609 1.30859 0.599609Z" stroke="#D9D9DE" stroke-width="1.2"/>
</svg>
