<svg width="10" height="10" viewBox="0 0 10 10" fill="none" xmlns="http://www.w3.org/2000/svg">
    <path d="M8.79066 1.72718L9.45477 0.998177C9.5598 0.88007 9.61393 0.725424 9.60543 0.567768C9.59693 0.410112 9.52647 0.262153 9.40935 0.155969C9.29222 0.0497841 9.13786 -0.00606721 8.97974 0.000523531C8.82161 0.00711427 8.67245 0.0756158 8.56462 0.191177L7.90101 0.919177C6.90213 0.21634 5.68022 -0.0981298 4.46518 0.0349347C3.25013 0.167999 2.12571 0.739424 1.30346 1.6417C0.481219 2.54397 0.017839 3.7149 0.000504491 4.93417C-0.01683 6.15344 0.413076 7.337 1.20934 8.26218L0.545233 8.99118C0.491002 9.04929 0.448872 9.11757 0.421286 9.19204C0.3937 9.26652 0.381207 9.34572 0.384529 9.42505C0.387851 9.50438 0.406924 9.58226 0.440641 9.65418C0.474359 9.7261 0.52205 9.79063 0.580952 9.84403C0.639853 9.89743 0.708793 9.93864 0.783776 9.96526C0.858759 9.99189 0.938293 10.0034 1.01777 9.99913C1.09724 9.99487 1.17508 9.97491 1.24677 9.94041C1.31846 9.90592 1.38257 9.85757 1.43538 9.79818L2.09899 9.07018C3.09787 9.77301 4.31978 10.0875 5.53482 9.95442C6.74987 9.82135 7.8743 9.24993 8.69654 8.34766C9.51878 7.44538 9.98216 6.27446 9.9995 5.05518C10.0168 3.83591 9.58692 2.65235 8.79066 1.72718ZM1.19079 4.99468C1.19021 4.30961 1.37544 3.63715 1.72683 3.04856C2.07822 2.45998 2.5827 1.97719 3.18679 1.65138C3.79088 1.32557 4.47207 1.16886 5.15818 1.19788C5.84429 1.22689 6.50975 1.44054 7.08404 1.81618L2.02631 7.36618C1.48477 6.69391 1.18995 5.85711 1.19079 4.99468ZM5 8.79468C4.25932 8.79544 3.5347 8.57934 2.91596 8.17318L7.97369 2.62318C8.42241 3.18175 8.70372 3.85547 8.78518 4.56665C8.86663 5.27783 8.74491 5.9975 8.43405 6.64264C8.12319 7.28779 7.63586 7.83214 7.02826 8.2129C6.42066 8.59367 5.71754 8.79535 5 8.79468Z" fill="currentColor" fill-opacity="0.6"/>
</svg>
