<svg width="16" height="16" viewBox="0 0 16 16" fill="none" xmlns="http://www.w3.org/2000/svg">
    <path fill-rule="evenodd" clip-rule="evenodd" d="M8.00042 0C10.121 0.00252764 12.1541 0.846394 13.6537 2.3457C15.1535 3.84537 15.998 5.87915 16.0004 8C16.0004 9.58214 15.5308 11.1288 14.6518 12.4443C13.7728 13.7597 12.5235 14.7851 11.0619 15.3906C9.60014 15.9961 7.99074 16.1544 6.43889 15.8457C4.88722 15.537 3.4619 14.7749 2.34319 13.6562C1.22448 12.5375 0.462399 11.1122 0.153737 9.56055C-0.154895 8.00883 0.00333985 6.40016 0.608815 4.93848C1.21429 3.47691 2.23968 2.22759 3.5551 1.34863C4.87069 0.469625 6.41817 0 8.00042 0ZM6.28557 11.4287C5.83112 11.4292 5.39501 11.6093 5.07366 11.9307C4.75229 12.252 4.57219 12.6881 4.57171 13.1426V13.9297C5.61213 14.537 6.79567 14.8574 8.00042 14.8574C9.20498 14.8573 10.3879 14.5369 11.4282 13.9297V13.1426C11.4277 12.6881 11.2476 12.252 10.9262 11.9307C10.6048 11.6093 10.1688 11.4292 9.71428 11.4287H6.28557ZM8.00042 1.12891C6.61128 1.12891 5.2548 1.55095 4.11077 2.33887C2.96669 3.12689 2.08835 4.24407 1.59319 5.54199C1.09811 6.83985 1.00884 8.25774 1.33733 9.60742C1.66585 10.9572 2.39681 12.1754 3.43303 13.1006C3.44413 12.351 3.74999 11.6359 4.28362 11.1094C4.81721 10.5829 5.53597 10.2873 6.28557 10.2861H9.71428C10.464 10.2871 11.1835 10.582 11.7172 11.1084C12.251 11.635 12.5567 12.3509 12.5678 13.1006C13.6039 12.1754 14.334 10.957 14.6625 9.60742C14.991 8.25766 14.9018 6.83992 14.4067 5.54199C13.9115 4.24407 13.0341 3.12689 11.8901 2.33887C10.746 1.5509 9.38958 1.12893 8.00042 1.12891ZM8.00042 3.42871C8.75788 3.42882 9.48426 3.73012 10.0199 4.26562C10.5558 4.80142 10.8569 5.52841 10.8569 6.28613C10.8569 6.85113 10.6893 7.40325 10.3754 7.87305C10.0615 8.34288 9.61526 8.70954 9.09319 8.92578C8.57122 9.14193 7.99691 9.19808 7.4428 9.08789C6.8887 8.97768 6.37944 8.70605 5.97991 8.30664C5.58039 7.90714 5.30796 7.39786 5.19768 6.84375C5.08744 6.28955 5.14452 5.71443 5.36077 5.19238C5.57704 4.67054 5.94282 4.22399 6.41253 3.91016C6.88235 3.59628 7.43538 3.42871 8.00042 3.42871ZM8.65569 4.70215C8.34254 4.57253 7.99787 4.53837 7.66546 4.60449C7.33293 4.67064 7.02727 4.83449 6.78753 5.07422C6.54792 5.31391 6.3849 5.61975 6.31878 5.95215C6.25274 6.28454 6.28674 6.62929 6.41643 6.94238C6.54613 7.25532 6.76568 7.52266 7.04729 7.71094C7.3292 7.8993 7.66136 8 8.00042 8C8.45463 7.99943 8.89009 7.81912 9.21135 7.49805C9.53274 7.17668 9.71382 6.74062 9.71428 6.28613C9.71428 5.94714 9.61354 5.61586 9.42522 5.33398C9.23685 5.05209 8.96893 4.83189 8.65569 4.70215Z" fill="currentColor"/>
</svg>
