<svg width="28" height="28" viewBox="0 0 28 28" fill="none" xmlns="http://www.w3.org/2000/svg">
<rect width="28" height="28" rx="4" fill="#685FFF"/>
<path d="M19.647 9.80718C19.8643 10.0121 19.9911 10.2948 19.9995 10.593C20.008 10.8912 19.8974 11.1805 19.6921 11.3974L13.302 18.1481C13.1984 18.2574 13.074 18.3448 12.936 18.4052C12.798 18.4656 12.6493 18.4978 12.4986 18.4999C12.3479 18.502 12.1983 18.4739 12.0587 18.4174C11.9191 18.3608 11.7922 18.2769 11.6857 18.1706L8.30265 14.7953C8.10346 14.582 7.99502 14.2999 8.00018 14.0084C8.00533 13.7169 8.12368 13.4388 8.33029 13.2326C8.5369 13.0265 8.81563 12.9084 9.10778 12.9033C9.39992 12.8981 9.68266 13.0063 9.89643 13.2051L12.46 15.7614L18.0532 9.85219C18.2586 9.63541 18.5419 9.50889 18.8408 9.50045C19.1397 9.49201 19.4297 9.60234 19.647 9.80718Z" fill="#D9D9DE"/>
</svg>
