<svg width="28" height="28" viewBox="0 0 28 28" fill="none" xmlns="http://www.w3.org/2000/svg">
<rect x="0.5" y="0.5" width="27" height="27" rx="3.5" stroke="#685FFF"/>
<path d="M19.7338 8.27531C19.3788 7.92036 18.8055 7.92036 18.4505 8.27531L14 12.7167L9.54949 8.26621C9.19454 7.91126 8.62116 7.91126 8.26621 8.26621C7.91126 8.62116 7.91126 9.19454 8.26621 9.54949L12.7167 14L8.26621 18.4505C7.91126 18.8055 7.91126 19.3788 8.26621 19.7338C8.62116 20.0887 9.19454 20.0887 9.54949 19.7338L14 15.2833L18.4505 19.7338C18.8055 20.0887 19.3788 20.0887 19.7338 19.7338C20.0887 19.3788 20.0887 18.8055 19.7338 18.4505L15.2833 14L19.7338 9.54949C20.0796 9.20364 20.0796 8.62116 19.7338 8.27531Z" fill="#685FFF"/>
</svg>
