<!-- Generated by IcoMoon.io -->
<svg version="1.1" xmlns="http://www.w3.org/2000/svg" width="32" height="32" viewBox="0 0 32 32">
<path stroke-linejoin="miter" stroke-linecap="butt" stroke-miterlimit="4" stroke-width="1.6" fill="#ff8f3f" stroke="#ff8f3f" d="M26.382 19.152c0 3.976-3.224 7.2-7.2 7.2s-7.2-3.224-7.2-7.2c0-3.976 3.224-7.2 7.2-7.2s7.2 3.224 7.2 7.2z"></path>
<path fill="#ff8f3f" d="M12.782 6.352c2.968 0 5.555 1.617 6.936 4.017-0.177-0.011-0.356-0.017-0.536-0.017-0.452 0-0.895 0.033-1.328 0.098-1.17-1.519-3.006-2.498-5.072-2.498-3.535 0-6.4 2.865-6.4 6.4 0 2.715 1.692 5.033 4.078 5.963 0.083 0.627 0.231 1.234 0.439 1.812-3.51-0.847-6.117-4.005-6.117-7.775 0-4.418 3.582-8 8-8z"></path>
</svg>
