<svg width="28" height="28" viewBox="0 0 28 28" fill="none" xmlns="http://www.w3.org/2000/svg">
<rect x="0.5" y="0.5" width="27" height="27" rx="3.5" stroke="#685FFF"/>
<path d="M19.9302 8.99165C19.9301 8.75137 19.8347 8.52094 19.6648 8.35103C19.4948 8.18112 19.2644 8.08566 19.0241 8.08562L11.7746 8.08562C11.6543 8.08353 11.5348 8.10542 11.423 8.15001C11.3113 8.19461 11.2095 8.26101 11.1237 8.34535C11.0379 8.42969 10.9697 8.53028 10.9232 8.64124C10.8767 8.75221 10.8527 8.87132 10.8527 8.99165C10.8527 9.11197 10.8767 9.23109 10.9232 9.34206C10.9697 9.45302 11.0379 9.55361 11.1237 9.63795C11.2095 9.72229 11.3113 9.78869 11.423 9.83329C11.5348 9.87788 11.6543 9.89977 11.7746 9.89768L16.8366 9.89768L8.35104 18.3832C8.1811 18.5532 8.08563 18.7837 8.08563 19.024C8.08563 19.2643 8.1811 19.4948 8.35104 19.6647C8.52098 19.8347 8.75147 19.9301 8.9918 19.9301C9.23213 19.9301 9.46262 19.8347 9.63256 19.6647L18.1181 11.1792L18.1181 16.2412C18.1222 16.4787 18.2195 16.7052 18.389 16.8717C18.5584 17.0383 18.7865 17.1316 19.0241 17.1316C19.2617 17.1316 19.4898 17.0383 19.6593 16.8717C19.8288 16.7052 19.926 16.4787 19.9302 16.2412L19.9302 8.99165Z" fill="#685FFF"/>
</svg>
