<svg width="11" height="14" viewBox="0 0 11 14" fill="none" xmlns="http://www.w3.org/2000/svg">
    <path d="M9.66663 7.26518C9.66663 10.2647 7.69788 11.7644 5.35788 12.6343C5.23534 12.6786 5.10224 12.6764 4.981 12.6283C2.63538 11.7644 0.666626 10.2647 0.666626 7.26518V3.06588C0.666626 2.90678 0.725889 2.75419 0.831379 2.64169C0.936868 2.52919 1.07994 2.46598 1.22913 2.46598C2.35413 2.46598 3.76038 1.7461 4.73913 0.834257C4.85829 0.725675 5.00989 0.666016 5.16663 0.666016C5.32336 0.666016 5.47496 0.725675 5.59413 0.834257C6.5785 1.7521 7.97913 2.46598 9.10413 2.46598C9.25331 2.46598 9.39638 2.52919 9.50187 2.64169C9.60736 2.75419 9.66663 2.90678 9.66663 3.06588V7.26518Z" stroke="currentColor" stroke-width="1.33333" stroke-linecap="round" stroke-linejoin="round"/>
</svg>
