<svg width="13" height="13" viewBox="0 0 13 13" fill="none" xmlns="http://www.w3.org/2000/svg">
<path d="M4.5 8.5V10.5C4.5 10.8956 4.3827 11.2822 4.16294 11.6111C3.94318 11.94 3.63082 12.1964 3.26537 12.3478C2.89992 12.4991 2.49778 12.5387 2.10982 12.4616C1.72186 12.3844 1.36549 12.1939 1.08579 11.9142C0.806082 11.6345 0.615601 11.2781 0.53843 10.8902C0.46126 10.5022 0.500867 10.1001 0.652242 9.73463C0.803617 9.36918 1.05996 9.05682 1.38886 8.83706C1.71776 8.6173 2.10444 8.5 2.5 8.5H4.5ZM4.5 8.5H8.5M4.5 8.5V4.5M8.5 8.5V10.5C8.5 10.8956 8.6173 11.2822 8.83706 11.6111C9.05682 11.94 9.36918 12.1964 9.73463 12.3478C10.1001 12.4991 10.5022 12.5387 10.8902 12.4616C11.2781 12.3844 11.6345 12.1939 11.9142 11.9142C12.1939 11.6345 12.3844 11.2781 12.4616 10.8902C12.5387 10.5022 12.4991 10.1001 12.3478 9.73463C12.1964 9.36918 11.94 9.05682 11.6111 8.83706C11.2822 8.6173 10.8956 8.5 10.5 8.5H8.5ZM8.5 8.5V4.5M4.5 4.5H8.5M4.5 4.5V2.5C4.5 2.10444 4.3827 1.71776 4.16294 1.38886C3.94318 1.05996 3.63082 0.803617 3.26537 0.652242C2.89992 0.500867 2.49778 0.46126 2.10982 0.53843C1.72186 0.615601 1.36549 0.806082 1.08579 1.08579C0.806082 1.36549 0.615601 1.72186 0.53843 2.10982C0.46126 2.49778 0.500867 2.89992 0.652242 3.26537C0.803617 3.63082 1.05996 3.94318 1.38886 4.16294C1.71776 4.3827 2.10444 4.5 2.5 4.5H4.5ZM8.5 4.5V2.5C8.5 2.10444 8.6173 1.71776 8.83706 1.38886C9.05682 1.05996 9.36918 0.803617 9.73463 0.652242C10.1001 0.500867 10.5022 0.46126 10.8902 0.53843C11.2781 0.615601 11.6345 0.806082 11.9142 1.08579C12.1939 1.36549 12.3844 1.72186 12.4616 2.10982C12.5387 2.49778 12.4991 2.89992 12.3478 3.26537C12.1964 3.63082 11.94 3.94318 11.6111 4.16294C11.2822 4.3827 10.8956 4.5 10.5 4.5H8.5Z" stroke="#D9D9DE" stroke-linecap="round" stroke-linejoin="round"/>
</svg>
