<svg width="16" height="16" viewBox="0 0 16 16" fill="none" xmlns="http://www.w3.org/2000/svg">
    <path d="M8.7998 0C9.22415 0 9.63158 0.168692 9.93164 0.46875C10.2315 0.768697 10.4003 1.1755 10.4004 1.59961V2.40039C10.4003 2.61238 10.3159 2.81589 10.166 2.96582C10.016 3.11585 9.81178 3.2002 9.59961 3.2002C9.38758 3.20009 9.18412 3.11576 9.03418 2.96582C8.88424 2.81588 8.79991 2.61242 8.7998 2.40039V1.59961H1.59961V14.4004H8.7998V13.5996C8.79991 13.3876 8.88424 13.1841 9.03418 13.0342C9.18412 12.8842 9.38758 12.7999 9.59961 12.7998C9.81178 12.7998 10.016 12.8842 10.166 13.0342C10.3159 13.1841 10.4003 13.3876 10.4004 13.5996V14.4004C10.4003 14.8245 10.2315 15.2313 9.93164 15.5312C9.63158 15.8313 9.22415 16 8.7998 16H1.59961C1.1754 15.9999 0.768716 15.8312 0.46875 15.5312C0.168784 15.2313 0.000103359 14.8246 0 14.4004V1.59961C0.000103422 1.1754 0.168784 0.768716 0.46875 0.46875C0.768716 0.168784 1.1754 0.000103391 1.59961 0H8.7998ZM12.8525 4.35742C13.0286 4.35247 13.2003 4.42321 13.3311 4.55469L15.7988 7.30273C15.9278 7.44635 16 7.64165 16 7.84473C15.9999 8.04761 15.9276 8.24222 15.7988 8.38574L13.3311 11.1338C13.0629 11.4324 12.6296 11.4323 12.3613 11.1338C12.233 10.9904 12.1603 10.7962 12.1602 10.5938C12.16 10.3912 12.2321 10.1964 12.3604 10.0527L13.6504 8.61035H7.6875C7.50519 8.61027 7.33009 8.52929 7.20117 8.38574C7.07239 8.24222 7.00008 8.04761 7 7.84473C7 7.64164 7.07222 7.44635 7.20117 7.30273C7.33009 7.15918 7.50519 7.0782 7.6875 7.07812H13.6504L12.3604 5.63574C12.2422 5.49019 12.1792 5.29963 12.1836 5.10352C12.188 4.90735 12.2602 4.72078 12.3848 4.58203C12.5093 4.44339 12.6765 4.36246 12.8525 4.35742Z" fill="currentColor"/>
</svg>
