<svg width="12" height="12" viewBox="0 0 12 12" fill="none" xmlns="http://www.w3.org/2000/svg">
    <path d="M11.1 6C11.5971 6 12.0069 6.40518 11.9326 6.89665C11.7896 7.84278 11.4216 8.74556 10.8541 9.52671C10.1093 10.5518 9.05916 11.3148 7.8541 11.7063C6.64904 12.0979 5.35096 12.0979 4.1459 11.7063C2.94084 11.3148 1.89067 10.5518 1.1459 9.52671C0.40113 8.50163 -1.10771e-07 7.26708 0 6C1.10771e-07 4.73292 0.40113 3.49837 1.1459 2.47329C1.89067 1.4482 2.94084 0.685208 4.1459 0.293661C5.0642 -0.00471185 6.03651 -0.0757144 6.98052 0.080653C7.47089 0.16188 7.72959 0.676884 7.57599 1.14961C7.42239 1.62234 6.91334 1.87048 6.41876 1.82093C5.84313 1.76325 5.25847 1.8248 4.70213 2.00556C3.85859 2.27965 3.12347 2.81374 2.60213 3.5313C2.08079 4.24886 1.8 5.11305 1.8 6C1.8 6.88695 2.08079 7.75114 2.60213 8.4687C3.12347 9.18626 3.85859 9.72035 4.70213 9.99444C5.54567 10.2685 6.45433 10.2685 7.29787 9.99444C8.14141 9.72035 8.87653 9.18626 9.39787 8.4687C9.74171 7.99545 9.98091 7.45842 10.1039 6.89314C10.2096 6.40746 10.6029 6 11.1 6Z" fill="url(#paint0_linear_65_784)"/>
    <defs>
        <linearGradient id="paint0_linear_65_784" x1="11.25" y1="6" x2="6" y2="2.625" gradientUnits="userSpaceOnUse">
            <stop stop-color="#685FFF" stop-opacity="0"/>
            <stop offset="1" stop-color="#685FFF"/>
        </linearGradient>
    </defs>
</svg>
