<svg width="34" height="29" viewBox="0 0 34 29" fill="none" xmlns="http://www.w3.org/2000/svg">
    <path d="M0.600006 6.99961H24.0667M2.73334 0.599609H21.9333C21.9333 0.599609 24.0667 0.599609 24.0667 2.73294V17.6663C24.0667 17.6663 24.0667 19.7996 21.9333 19.7996H2.73334C2.73334 19.7996 0.600006 19.7996 0.600006 17.6663V2.73294C0.600006 2.73294 0.600006 0.599609 2.73334 0.599609Z" stroke="currentColor" stroke-width="1.2" stroke-linecap="round" stroke-linejoin="round"/>
    <path d="M28.3337 7V21.9333C28.3337 22.4991 28.109 23.0417 27.7089 23.4418C27.3088 23.8419 26.7662 24.0667 26.2004 24.0667H7.0004" stroke="currentColor" stroke-width="1.2" stroke-linecap="round" stroke-linejoin="round"/>
    <path d="M32.6003 11.2656V26.199C32.6003 26.7648 32.3756 27.3074 31.9755 27.7075C31.5754 28.1075 31.0328 28.3323 30.467 28.3323H11.267" stroke="currentColor" stroke-width="1.2" stroke-linecap="round" stroke-linejoin="round"/>
</svg>
