<svg width="18" height="18" viewBox="0 0 18 18" fill="none" xmlns="http://www.w3.org/2000/svg">
    <path d="M8.38046 4.95234C8.41994 4.89005 8.47453 4.83875 8.53914 4.80321C8.60376 4.76766 8.67631 4.74902 8.75006 4.74902C8.82381 4.74902 8.89636 4.76766 8.96098 4.80321C9.02559 4.83875 9.08018 4.89005 9.11966 4.95234L9.61726 5.73474C10.1684 6.59852 10.9015 7.33159 11.7653 7.88274L12.5477 8.38034C12.6099 8.41982 12.6612 8.47441 12.6968 8.53902C12.7323 8.60364 12.751 8.67619 12.751 8.74994C12.751 8.82369 12.7323 8.89624 12.6968 8.96085C12.6612 9.02547 12.6099 9.08005 12.5477 9.11954L11.7653 9.61714C10.9015 10.1683 10.1684 10.9014 9.61726 11.7651L9.11966 12.5475C9.08018 12.6098 9.02559 12.6611 8.96098 12.6967C8.89636 12.7322 8.82381 12.7509 8.75006 12.7509C8.67631 12.7509 8.60376 12.7322 8.53914 12.6967C8.47453 12.6611 8.41994 12.6098 8.38046 12.5475L7.88286 11.7651C7.33171 10.9014 6.59864 10.1683 5.73486 9.61714L4.95246 9.11954C4.89017 9.08005 4.83887 9.02547 4.80333 8.96085C4.76778 8.89624 4.74915 8.82369 4.74915 8.74994C4.74915 8.67619 4.76778 8.60364 4.80333 8.53902C4.83887 8.47441 4.89017 8.41982 4.95246 8.38034L5.73486 7.88274C6.59864 7.33159 7.33171 6.59852 7.88286 5.73474L8.38046 4.95234Z" stroke="currentColor" stroke-opacity="0.16" stroke-width="1.5" stroke-linejoin="round"/>
    <path d="M8.75 16.75C13.1683 16.75 16.75 13.1683 16.75 8.75C16.75 4.33172 13.1683 0.75 8.75 0.75C4.33172 0.75 0.75 4.33172 0.75 8.75C0.75 13.1683 4.33172 16.75 8.75 16.75Z" stroke="currentColor" stroke-opacity="0.16" stroke-width="1.5" stroke-linejoin="round"/>
</svg>
