<svg version="1.1" xmlns="http://www.w3.org/2000/svg" width="32" height="32" viewBox="0 0 32 32">
<path fill="none" stroke-linejoin="round" stroke-linecap="round" stroke-miterlimit="4" stroke-width="1.8824" stroke="currentColor" d="M10.98 5.961h1.673c0.888 0 1.739 0.353 2.366 0.98s0.98 1.479 0.98 2.366v13.386c0 0.888-0.353 1.739-0.98 2.366s-1.479 0.98-2.366 0.98h-1.673M21.020 16h-5.020M7.634 0.941c0.887 0 1.739 0.353 2.366 0.98s0.98 1.479 0.98 2.366v3.346c0 0.887-0.353 1.739-0.98 2.366s-1.479 0.98-2.366 0.98h-3.346c-0.888 0-1.739-0.353-2.366-0.98s-0.98-1.479-0.98-2.366v-3.346c0-0.888 0.353-1.739 0.98-2.366s1.479-0.98 2.366-0.98h3.346zM7.634 21.020c0.887 0 1.739 0.353 2.366 0.98s0.98 1.479 0.98 2.366v3.346c0 0.888-0.353 1.739-0.98 2.366s-1.479 0.98-2.366 0.98h-3.346c-0.888 0-1.739-0.353-2.366-0.98s-0.98-1.479-0.98-2.366v-3.346c0-0.888 0.353-1.739 0.98-2.366s1.479-0.98 2.366-0.98h3.346zM27.712 10.98c0.888 0 1.739 0.353 2.366 0.98s0.98 1.479 0.98 2.366v3.346c0 0.887-0.353 1.739-0.98 2.366s-1.479 0.98-2.366 0.98h-3.346c-0.888 0-1.739-0.353-2.366-0.98s-0.98-1.479-0.98-2.366v-3.346c0-0.887 0.353-1.739 0.98-2.366s1.479-0.98 2.366-0.98h3.346z"></path>
</svg>
