<svg width="13" height="13" viewBox="0 0 13 13" fill="none" xmlns="http://www.w3.org/2000/svg">
<path fill-rule="evenodd" clip-rule="evenodd" d="M4.14551 11.8756C5.5464 12.349 7.07191 12.2963 8.4375 11.7291C9.80307 11.1617 10.9163 10.1173 11.5693 8.79064C12.2223 7.46375 12.3708 5.94445 11.9873 4.51623C11.6036 3.08793 10.7144 1.8472 9.48438 1.02599C8.25428 0.204816 6.7671 -0.140944 5.30078 0.0523586C3.83478 0.245766 2.48878 0.965141 1.51367 2.07677C0.538641 3.18865 0.000420459 4.61746 0 6.0963C0.00015448 6.42734 0.268556 6.6966 0.599609 6.69689C0.930765 6.69689 1.1989 6.42743 1.19922 6.0963C1.19963 4.9086 1.63198 3.76079 2.41504 2.86779C3.1983 1.97477 4.28036 1.39716 5.45801 1.24181C6.63562 1.08662 7.82945 1.36462 8.81738 2.02404C9.80535 2.68359 10.5209 3.67959 10.8291 4.82677C11.1372 5.9739 11.0175 7.1946 10.4932 8.26037C9.96861 9.32607 9.07445 10.1659 7.97754 10.6217C6.88059 11.0773 5.65459 11.1192 4.5293 10.7389C3.75849 10.4783 3.07085 10.0309 2.52246 9.44494H4.03613C4.36746 9.44494 4.63664 9.17663 4.63672 8.84533C4.63672 8.51396 4.3675 8.24474 4.03613 8.24474H1.28711C0.955886 8.24491 0.6875 8.51406 0.6875 8.84533V11.5944C0.687505 11.9256 0.955889 12.1938 1.28711 12.194C1.61848 12.194 1.88671 11.9257 1.88672 11.5944V10.5065C2.52612 11.1174 3.29491 11.5881 4.14551 11.8756Z" fill="#685FFF"/>
</svg>
