<svg width="10" height="10" viewBox="0 0 10 10" fill="none" xmlns="http://www.w3.org/2000/svg">
    <path d="M0.159447 4.60444C0.266113 4.49778 0.398149 4.44444 0.555557 4.44444H2.77778C2.93519 4.44444 3.06704 4.49778 3.17333 4.60444C3.27963 4.71111 3.33296 4.84296 3.33333 5C3.3337 5.15704 3.28037 5.28907 3.17333 5.39611C3.0663 5.50315 2.93444 5.5563 2.77778 5.55556H2.22222V9.44444C2.22222 9.60185 2.16889 9.73389 2.06222 9.84055C1.95556 9.94722 1.8237 10.0004 1.66667 10C1.50963 9.99963 1.37759 9.94629 1.27056 9.84C1.16352 9.7337 1.11037 9.60185 1.11111 9.44444V5.55556H0.555557C0.398149 5.55556 0.266113 5.50222 0.159447 5.39556C0.0527802 5.28889 -0.000369072 5.15704 1.90735e-06 5C0.000371933 4.84296 0.0531502 4.71111 0.159447 4.60444ZM1.11111 0.555557C1.11111 0.39815 1.16445 0.266298 1.27111 0.160002C1.37778 0.0537057 1.50963 0.000372286 1.66667 1.91571e-06C1.8237 -0.000368455 1.95556 0.0529649 2.06222 0.160002C2.16889 0.267039 2.22222 0.398891 2.22222 0.555557V2.77778C2.22222 2.93519 2.16889 3.06722 2.06222 3.17389C1.95556 3.28056 1.8237 3.3337 1.66667 3.33333C1.50963 3.33296 1.37759 3.27963 1.27056 3.17333C1.16352 3.06704 1.11037 2.93519 1.11111 2.77778V0.555557ZM3.49333 2.38222C3.59963 2.27556 3.73148 2.22222 3.88889 2.22222H4.44444V0.555557C4.44444 0.39815 4.49778 0.266298 4.60444 0.160002C4.71111 0.0537057 4.84296 0.000372286 5 1.91571e-06C5.15704 -0.000368455 5.28889 0.0529649 5.39556 0.160002C5.50222 0.267039 5.55556 0.398891 5.55556 0.555557V2.22222H6.11111C6.26852 2.22222 6.40037 2.27556 6.50667 2.38222C6.61296 2.48889 6.6663 2.62074 6.66667 2.77778C6.66704 2.93482 6.6137 3.06685 6.50667 3.17389C6.39963 3.28093 6.26778 3.33407 6.11111 3.33333H3.88889C3.73148 3.33333 3.59944 3.28 3.49278 3.17333C3.38611 3.06667 3.33296 2.93482 3.33333 2.77778C3.3337 2.62074 3.38704 2.48889 3.49333 2.38222ZM4.44444 5C4.44444 4.84259 4.49778 4.71074 4.60444 4.60444C4.71111 4.49815 4.84296 4.44482 5 4.44444C5.15704 4.44407 5.28889 4.49741 5.39556 4.60444C5.50222 4.71148 5.55556 4.84333 5.55556 5V9.44444C5.55556 9.60185 5.50222 9.73389 5.39556 9.84055C5.28889 9.94722 5.15704 10.0004 5 10C4.84296 9.99963 4.71093 9.94629 4.60389 9.84C4.49685 9.7337 4.4437 9.60185 4.44444 9.44444V5ZM6.82667 6.82667C6.93296 6.72 7.06481 6.66667 7.22222 6.66667H9.44444C9.60185 6.66667 9.7337 6.72 9.84 6.82667C9.94629 6.93333 9.99963 7.06518 10 7.22222C10.0004 7.37926 9.94704 7.5113 9.84 7.61833C9.73296 7.72537 9.60111 7.77852 9.44444 7.77778H8.88889V9.44444C8.88889 9.60185 8.83555 9.73389 8.72889 9.84055C8.62222 9.94722 8.49037 10.0004 8.33333 10C8.1763 9.99963 8.04426 9.94629 7.93722 9.84C7.83018 9.7337 7.77704 9.60185 7.77778 9.44444V7.77778H7.22222C7.06481 7.77778 6.93278 7.72444 6.82611 7.61778C6.71944 7.51111 6.6663 7.37926 6.66667 7.22222C6.66704 7.06518 6.72037 6.93333 6.82667 6.82667ZM7.77778 0.555557C7.77778 0.39815 7.83111 0.266298 7.93778 0.160002C8.04444 0.0537057 8.1763 0.000372286 8.33333 1.91571e-06C8.49037 -0.000368455 8.62222 0.0529649 8.72889 0.160002C8.83555 0.267039 8.88889 0.398891 8.88889 0.555557V5C8.88889 5.15741 8.83555 5.28944 8.72889 5.39611C8.62222 5.50278 8.49037 5.55593 8.33333 5.55556C8.1763 5.55519 8.04426 5.50185 7.93722 5.39556C7.83018 5.28926 7.77704 5.15741 7.77778 5V0.555557Z" fill="currentColor"/>
</svg>
