<svg width="12" height="11" viewBox="0 0 12 11" fill="none" xmlns="http://www.w3.org/2000/svg">
    <path d="M5.89258 0C6.1696 6.343e-05 6.44218 0.0711586 6.68359 0.207031C6.86468 0.309054 7.02447 0.444998 7.15332 0.606445L7.27148 0.776367L7.27344 0.779297L11.5645 7.94434L11.5693 7.95215C11.7101 8.19605 11.7844 8.47328 11.7852 8.75488C11.7858 9.03637 11.7126 9.31304 11.5732 9.55762C11.4338 9.80231 11.2329 10.0065 10.9902 10.1494C10.7476 10.2922 10.471 10.3689 10.1895 10.3721H1.59473C1.31333 10.3689 1.03749 10.2921 0.794922 10.1494C0.552223 10.0066 0.350407 9.80226 0.210938 9.55762C0.0716853 9.31312 -0.000688489 9.03625 0 8.75488C0.000788568 8.47319 0.074979 8.19611 0.21582 7.95215L0.220703 7.94434L4.51172 0.779297L4.5127 0.776367H4.51367C4.65739 0.539465 4.85917 0.343041 5.10059 0.207031C5.34215 0.0710348 5.61536 0 5.89258 0ZM5.89258 1.19922C5.82165 1.19922 5.75129 1.21814 5.68945 1.25293C5.62775 1.28776 5.57583 1.33782 5.53906 1.39844L1.25488 8.55176C1.21879 8.61428 1.19942 8.6856 1.19922 8.75781C1.19904 8.82997 1.21819 8.90119 1.25391 8.96387C1.28964 9.02643 1.34127 9.07871 1.40332 9.11523C1.46543 9.15172 1.53639 9.17108 1.6084 9.17188H10.1768C10.2488 9.17103 10.3197 9.15178 10.3818 9.11523C10.4439 9.07866 10.4956 9.02647 10.5312 8.96387C10.567 8.90119 10.5851 8.82997 10.585 8.75781C10.5848 8.68569 10.5663 8.61422 10.5303 8.55176H10.5293L6.24609 1.39844L6.17969 1.31641C6.15442 1.29191 6.12562 1.27036 6.09473 1.25293C6.03302 1.21824 5.96334 1.19928 5.89258 1.19922ZM5.89648 7.14551C6.22781 7.14556 6.49609 7.41378 6.49609 7.74512C6.49594 8.07632 6.22772 8.34468 5.89648 8.34473H5.89258C5.56131 8.34473 5.29313 8.07635 5.29297 7.74512C5.29297 7.41375 5.56121 7.14551 5.89258 7.14551H5.89648ZM5.89258 3.0918C6.22391 3.09184 6.49219 3.36006 6.49219 3.69141V5.71777C6.492 6.04895 6.22379 6.31831 5.89258 6.31836C5.56132 6.31836 5.29316 6.04898 5.29297 5.71777V3.69141C5.29297 3.36004 5.56121 3.0918 5.89258 3.0918Z" fill="currentColor"/>
</svg>
