<svg width="34" height="34" viewBox="0 0 34 34" fill="none" xmlns="http://www.w3.org/2000/svg">
    <path d="M16.3848 0.0390625C16.5459 -0.0227062 16.7274 -0.0119481 16.8818 0.0703125L30.959 7.57715L32.2988 6.80078C32.5853 6.63467 32.9518 6.73221 33.1182 7.01855C33.2844 7.3052 33.187 7.67261 32.9004 7.83887L31.5996 8.59277V24.6055L32.9004 25.3604C33.187 25.5266 33.2844 25.894 33.1182 26.1807C32.9519 26.4671 32.5854 26.5646 32.2988 26.3984L30.959 25.6211L16.8818 33.1289C16.7054 33.2229 16.4938 33.223 16.3174 33.1289L2.23926 25.6211L0.900391 26.3984C0.613849 26.5645 0.247328 26.4671 0.0810547 26.1807C-0.0850801 25.8941 0.0123067 25.5266 0.298828 25.3604L1.59961 24.6055V8.59277L0.298828 7.83887C0.012317 7.67258 -0.0851423 7.30514 0.0810547 7.01855C0.247318 6.73217 0.613857 6.63478 0.900391 6.80078L2.23926 7.57715L16.3174 0.0703125L16.3848 0.0390625ZM3.46094 24.9121L16 31.5996V25.7627L8.61426 21.9229L3.46094 24.9121ZM17.1992 25.7627V31.5996L29.7373 24.9121L24.583 21.9229L17.1992 25.7627ZM9.84473 21.209L16 24.4092V17.6406L9.84473 21.209ZM17.1992 24.4092L23.3535 21.21L17.1992 17.6406V24.4092ZM2.7998 23.9092L8 20.8926V12.3047L2.7998 9.28906V23.9092ZM25.1992 12.3047V20.8926L30.3994 23.9092V9.28906L25.1992 12.3047ZM9.19922 20.1973L15.4033 16.5996L9.19922 13.001V20.1973ZM17.7949 16.5996L24 20.1973V13L17.7949 16.5996ZM9.84277 11.9873L16 15.5576V8.78613L9.84277 11.9873ZM17.1992 15.5576L23.3555 11.9863L17.1992 8.78613V15.5576ZM3.46094 8.28613L8.61426 11.2744L16 7.43457V1.59863L3.46094 8.28613ZM17.1992 7.43457L24.583 11.2744L29.7373 8.28613L17.1992 1.59863V7.43457Z" fill="currentColor"/>
</svg>
