<svg width="15" height="15" viewBox="0 0 15 15" fill="none" xmlns="http://www.w3.org/2000/svg">
    <path d="M0.399902 1.37684C0.399902 1.15592 0.578988 0.976837 0.799902 0.976837H5.68196C5.90287 0.976837 6.08196 1.15592 6.08196 1.37684V6.25889C6.08196 6.47981 5.90287 6.6589 5.68196 6.6589H0.799903C0.578989 6.6589 0.399902 6.47981 0.399902 6.2589V1.37684ZM7.51612 4.10053C7.35991 3.94432 7.35991 3.69105 7.51612 3.53484L10.5337 0.517218C10.69 0.361008 10.9432 0.361008 11.0994 0.517218L14.1171 3.53484C14.2733 3.69105 14.2733 3.94432 14.1171 4.10053L11.0994 7.11816C10.9432 7.27437 10.69 7.27437 10.5337 7.11816L7.51612 4.10053ZM0.399902 8.95303C0.399902 8.73212 0.578988 8.55303 0.799902 8.55303H5.68196C5.90287 8.55303 6.08196 8.73212 6.08196 8.95303V13.8351C6.08196 14.056 5.90287 14.2351 5.68196 14.2351H0.799903C0.578989 14.2351 0.399902 14.056 0.399902 13.8351V8.95303ZM7.9761 8.95303C7.9761 8.73212 8.15518 8.55303 8.3761 8.55303H13.2582C13.4791 8.55303 13.6582 8.73212 13.6582 8.95303V13.8351C13.6582 14.056 13.4791 14.2351 13.2582 14.2351H8.3761C8.15519 14.2351 7.9761 14.056 7.9761 13.8351V8.95303Z" stroke="currentColor" stroke-width="0.8" stroke-linecap="round" stroke-linejoin="round"/>
</svg>
