<svg width="5" height="16" viewBox="0 0 5 16" fill="none" xmlns="http://www.w3.org/2000/svg">
<path fill-rule="evenodd" clip-rule="evenodd" d="M4.84 9.71023C4.93714 9.59789 5 9.45317 5 9.29226C5 8.94761 4.72 8.6677 4.37429 8.6677C4.19048 8.6677 4.02571 8.74862 3.91143 8.87525L3.12476 9.74736L3.13021 5.62457C3.13021 5.27991 2.85021 5 2.50545 5C2.15974 5 1.87974 5.27991 1.87974 5.62457L1.87429 9.74736L1.08952 8.8743C0.973333 8.74862 0.808571 8.6677 0.624762 8.6677C0.28 8.6677 0 8.94761 0 9.29226C0 9.45317 0.0619048 9.59788 0.161905 9.70833L2.03524 11.7924C2.15048 11.9181 2.31524 12 2.5 12C2.68381 12 2.84857 11.9181 2.96286 11.7915L4.84 9.71023Z" fill="#5774E7"/>
</svg>
