<svg width="5" height="7" viewBox="0 0 5 7" fill="none" xmlns="http://www.w3.org/2000/svg">
<path fill-rule="evenodd" clip-rule="evenodd" d="M4.84 2.28977C4.93714 2.40211 5 2.54683 5 2.70774C5 3.05239 4.72 3.3323 4.37429 3.3323C4.19048 3.3323 4.02571 3.25138 3.91143 3.12475L3.12476 2.25264L3.13021 6.37543C3.13021 6.72009 2.85021 7 2.50545 7C2.15974 7 1.87974 6.72009 1.87974 6.37543L1.87429 2.25264L1.08952 3.1257C0.973333 3.25138 0.808571 3.3323 0.624762 3.3323C0.28 3.3323 0 3.05239 0 2.70774C0 2.54683 0.0619048 2.40212 0.161905 2.29167L2.03524 0.207555C2.15048 0.0818791 2.31524 0 2.5 0C2.68381 0 2.84857 0.0818796 2.96286 0.208507L4.84 2.28977Z" fill="#4A4A4A"/>
</svg>
