<svg xmlns="http://www.w3.org/2000/svg" width="16" height="16" viewBox="0 0 16 16" fill="currentColor">
  <path d="M8 11.14C7.82 11.14 7.64 11.12 7.47 11.06C7.31 11 7.16 10.9 7.02 10.76L0.42 4.36C0.16 4.1 0.02 3.79 0.01 3.4C0 3.02 0.14 2.69 0.42 2.41C0.68 2.16 1.02 2.03 1.42 2.03C1.83 2.03 2.16 2.16 2.43 2.41L8 7.81L13.57 2.41C13.84 2.16 14.18 2.02 14.58 2.01C14.97 2 15.31 2.13 15.58 2.41C15.86 2.67 16 2.99 16 3.39C16 3.78 15.86 4.1 15.58 4.36L9.01 10.76C8.87 10.9 8.72 11 8.55 11.06C8.38 11.12 8.2 11.14 8 11.14Z"/>
</svg>
