<svg width="16" height="16" viewBox="0 0 16 16" fill="none" xmlns="http://www.w3.org/2000/svg">
<rect x="3" y="12" width="10" height="1" fill="#5774E7"/>
<path d="M3 10.5C3 10.2239 3.22386 10 3.5 10C3.77614 10 4 10.2239 4 10.5V13H3V10.5Z" fill="#5774E7"/>
<path d="M12 10.5C12 10.2239 12.2239 10 12.5 10C12.7761 10 13 10.2239 13 10.5V13H12V10.5Z" fill="#5774E7"/>
<path d="M9.65564 7.5753L8.3684 8.81728V3.54166C8.3684 3.24251 8.11706 3 7.80701 3C7.49695 3 7.24561 3.24251 7.24561 3.54166V8.81728L5.95837 7.5753C5.73914 7.36377 5.38366 7.36377 5.16443 7.5753C4.94519 7.78683 4.94519 8.1298 5.16443 8.34133L7.41003 10.508C7.42332 10.5208 7.43698 10.5326 7.45116 10.5439C7.45766 10.549 7.46453 10.5535 7.47122 10.5583C7.47919 10.5641 7.48701 10.5701 7.4953 10.5754C7.5033 10.5806 7.51159 10.5851 7.5198 10.5898C7.52732 10.5941 7.53466 10.5987 7.5424 10.6026C7.55077 10.607 7.55938 10.6106 7.56793 10.6145C7.57598 10.6182 7.58393 10.6221 7.59219 10.6254C7.60048 10.6287 7.60895 10.6314 7.61737 10.6343C7.62624 10.6373 7.63498 10.6406 7.64403 10.6432C7.65245 10.6457 7.66101 10.6475 7.66953 10.6496C7.67877 10.6518 7.6879 10.6543 7.69732 10.6561C7.70719 10.658 7.71714 10.6591 7.72706 10.6605C7.73524 10.6616 7.74332 10.6631 7.75161 10.6639C7.78845 10.6674 7.82559 10.6674 7.86243 10.6639C7.87072 10.6631 7.87877 10.6616 7.88698 10.6605C7.8969 10.6591 7.90687 10.658 7.91672 10.6561C7.92614 10.6543 7.93524 10.6518 7.94448 10.6495C7.95301 10.6475 7.96156 10.6457 7.96998 10.6432C7.97903 10.6406 7.9878 10.6373 7.99664 10.6342C8.00506 10.6313 8.01353 10.6286 8.02182 10.6253C8.03009 10.622 8.03801 10.6182 8.04606 10.6145C8.05461 10.6106 8.06324 10.6069 8.07161 10.6026C8.07932 10.5986 8.08666 10.5941 8.09416 10.5897C8.10237 10.585 8.11069 10.5805 8.11869 10.5754C8.12698 10.57 8.13477 10.5641 8.14272 10.5583C8.14943 10.5535 8.1563 10.549 8.16282 10.5438C8.1769 10.5327 8.19045 10.5209 8.20335 10.5085C8.20356 10.5083 10.4496 8.34131 10.4496 8.34131C10.6688 8.12978 10.6688 7.7868 10.4496 7.57527C10.2303 7.36374 9.8749 7.36377 9.65564 7.5753Z" fill="#5774E7"/>
</svg>
