<svg width="100" height="100" viewBox="0 0 100 100" fill="none" xmlns="http://www.w3.org/2000/svg">
<path d="M68 46L66 44H84.25C85.45 44 87.8333 44.9167 88.5 45.25C91.7 46.85 94 50.4167 94.75 51.75C96.35 53.95 95.8333 57.75 95.75 59.75C95.55 62.95 93.5 65.9167 92.5 67C90.3 70 85.25 70.9167 83 71V69.25L86.25 68.5C87.3333 68.0833 89.85 66.8 91.25 65C92.65 63.2 93.3333 60.75 93.5 59.75C93.7 59.15 93.75 57.8333 93.75 57.25C93.75 56.65 93.5833 55.6667 93.5 55.25C93.3 54.65 92.5 52.5 91.75 51.25C90.7434 49.5723 90.75 49.8 88.75 48C86.75 46.2 84.25 46.0833 83.25 46H68Z" fill="#685FFF"/>
<path d="M33.8955 46L35.8955 44H17.6455C16.4455 44 14.0622 44.9167 13.3955 45.25C10.1955 46.85 7.89551 50.4167 7.14551 51.75C5.54551 53.95 6.06217 57.75 6.14551 59.75C6.34551 62.95 8.39551 65.9167 9.39551 67C11.5955 70 16.6455 70.9167 18.8955 71V69.25L15.6455 68.5C14.5622 68.0833 12.0455 66.8 10.6455 65C9.24551 63.2 8.56217 60.75 8.39551 59.75C8.19551 59.15 8.14551 57.8333 8.14551 57.25C8.14551 56.65 8.31217 55.6667 8.39551 55.25C8.59551 54.65 9.39551 52.5 10.1455 51.25C11.1521 49.5723 11.1455 49.8 13.1455 48C15.1455 46.2 17.6455 46.0833 18.6455 46H33.8955Z" fill="#685FFF"/>
<mask id="path-3-inside-1_663_2288" fill="white">
<path d="M63 32.75C58.25 36.2498 57.4995 37.7486 53.7132 38.3617C55.9857 40.6066 58.75 40.2857 59.75 39C61.4981 36.7525 61.9347 35.9021 63 32.75Z"/>
</mask>
<path d="M53.7132 38.3617L50.5068 41.6074L44.1159 35.2939L52.984 33.8579L53.7132 38.3617ZM63 32.75L60.2936 29.0769C61.8974 27.8953 64.0824 27.8907 65.6911 29.0657C67.2997 30.2407 67.9601 32.3235 67.3223 34.2107L63 32.75ZM59.75 39L63.3514 41.8011L59.75 39ZM52.984 33.8579C54.1564 33.6681 54.643 33.4218 55.3579 32.9154C55.8424 32.5722 56.3694 32.1454 57.2158 31.4637C58.0261 30.8111 59.0251 30.0116 60.2936 29.0769L65.7064 36.4231C64.5999 37.2383 63.7238 37.9386 62.9392 38.5705C62.1906 39.1733 61.4027 39.8157 60.6325 40.3613C58.8381 41.6325 57.0563 42.4422 54.4425 42.8654L52.984 33.8579ZM67.3223 34.2107C66.785 35.8005 66.316 37.092 65.6802 38.3166C65.0241 39.5802 64.2725 40.6167 63.3514 41.8011L56.1486 36.1989C56.9756 35.1358 57.3163 34.6233 57.5819 34.1118C57.8677 33.5613 58.1497 32.8515 58.6777 31.2893L67.3223 34.2107ZM63.3514 41.8011C60.1304 45.9423 54.0352 45.093 50.5068 41.6074L56.9196 35.116C57.3012 35.4929 57.4959 35.4498 57.3732 35.4454C57.33 35.4438 57.1972 35.4466 56.9958 35.528C56.8024 35.6061 56.4647 35.7926 56.1486 36.1989L63.3514 41.8011Z" fill="#685FFF" mask="url(#path-3-inside-1_663_2288)"/>
<mask id="path-5-inside-2_663_2288" fill="white">
<path d="M38.5293 32.75C43.2793 36.2498 44.0298 37.7486 47.8161 38.3617C45.5436 40.6066 42.7793 40.2857 41.7793 39C40.0312 36.7525 39.5946 35.9021 38.5293 32.75Z"/>
</mask>
<path d="M47.8161 38.3617L51.0225 41.6074L57.4134 35.2939L48.5453 33.8579L47.8161 38.3617ZM38.5293 32.75L41.2356 29.0769C39.6319 27.8953 37.4469 27.8907 35.8382 29.0657C34.2296 30.2407 33.5692 32.3235 34.207 34.2107L38.5293 32.75ZM41.7793 39L38.1779 41.8011L41.7793 39ZM48.5453 33.8579C47.3729 33.6681 46.8863 33.4218 46.1714 32.9154C45.6869 32.5722 45.1599 32.1454 44.3135 31.4637C43.5032 30.8111 42.5042 30.0116 41.2356 29.0769L35.8229 36.4231C36.9294 37.2383 37.8055 37.9386 38.5901 38.5705C39.3387 39.1733 40.1266 39.8157 40.8968 40.3613C42.6912 41.6325 44.473 42.4422 47.0868 42.8654L48.5453 33.8579ZM34.207 34.2107C34.7443 35.8005 35.2133 37.092 35.8491 38.3166C36.5052 39.5802 37.2568 40.6167 38.1779 41.8011L45.3807 36.1989C44.5537 35.1358 44.213 34.6233 43.9474 34.1118C43.6616 33.5613 43.3795 32.8515 42.8516 31.2893L34.207 34.2107ZM38.1779 41.8011C41.3989 45.9423 47.4941 45.093 51.0225 41.6074L44.6097 35.116C44.2281 35.4929 44.0334 35.4498 44.1561 35.4454C44.1993 35.4438 44.3321 35.4466 44.5335 35.528C44.7269 35.6061 45.0646 35.7926 45.3807 36.1989L38.1779 41.8011Z" fill="#685FFF" mask="url(#path-5-inside-2_663_2288)"/>
<path d="M58 59H57V78H58V59Z" fill="#685FFF"/>
<path fill-rule="evenodd" clip-rule="evenodd" d="M57.5 80.5C58.3284 80.5 59 79.8284 59 79C59 78.1716 58.3284 77.5 57.5 77.5C56.6716 77.5 56 78.1716 56 79C56 79.8284 56.6716 80.5 57.5 80.5ZM57.5 79.75C57.9142 79.75 58.25 79.4142 58.25 79C58.25 78.5858 57.9142 78.25 57.5 78.25C57.0858 78.25 56.75 78.5858 56.75 79C56.75 79.4142 57.0858 79.75 57.5 79.75Z" fill="#685FFF"/>
<path d="M44 59H43V78H44V59Z" fill="#685FFF"/>
<path fill-rule="evenodd" clip-rule="evenodd" d="M43.5 80.5C44.3284 80.5 45 79.8284 45 79C45 78.1716 44.3284 77.5 43.5 77.5C42.6716 77.5 42 78.1716 42 79C42 79.8284 42.6716 80.5 43.5 80.5ZM43.5 79.75C43.9142 79.75 44.25 79.4142 44.25 79C44.25 78.5858 43.9142 78.25 43.5 78.25C43.0858 78.25 42.75 78.5858 42.75 79C42.75 79.4142 43.0858 79.75 43.5 79.75Z" fill="#685FFF"/>
<path d="M48 56H47V90.5H48V56Z" fill="#685FFF"/>
<path fill-rule="evenodd" clip-rule="evenodd" d="M47.5 93C48.3284 93 49 92.3284 49 91.5C49 90.6716 48.3284 90 47.5 90C46.6716 90 46 90.6716 46 91.5C46 92.3284 46.6716 93 47.5 93ZM47.5 92.25C47.9142 92.25 48.25 91.9142 48.25 91.5C48.25 91.0858 47.9142 90.75 47.5 90.75C47.0858 90.75 46.75 91.0858 46.75 91.5C46.75 91.9142 47.0858 92.25 47.5 92.25Z" fill="#685FFF"/>
<path fill-rule="evenodd" clip-rule="evenodd" d="M47.5 85.5C48.3284 85.5 49 84.8284 49 84C49 83.1716 48.3284 82.5 47.5 82.5C46.6716 82.5 46 83.1716 46 84C46 84.8284 46.6716 85.5 47.5 85.5ZM47.5 84.75C47.9142 84.75 48.25 84.4142 48.25 84C48.25 83.5858 47.9142 83.25 47.5 83.25C47.0858 83.25 46.75 83.5858 46.75 84C46.75 84.4142 47.0858 84.75 47.5 84.75Z" fill="#685FFF"/>
<path d="M65.5 67L60.75 62.5L60 63.25L64.5 67.5V72.5H65.5V67Z" fill="#685FFF"/>
<path fill-rule="evenodd" clip-rule="evenodd" d="M65 76C66.1046 76 67 75.1046 67 74C67 72.8954 66.1046 72 65 72C63.8954 72 63 72.8954 63 74C63 75.1046 63.8954 76 65 76ZM65 75C65.5523 75 66 74.5523 66 74C66 73.4477 65.5523 73 65 73C64.4477 73 64 73.4477 64 74C64 74.5523 64.4477 75 65 75Z" fill="#685FFF"/>
<path d="M61.75 43.5L63.25 42.5L67.5 47.25H83.75C85.25 47.4167 88.65 48.45 90.25 51.25C90.8129 52.2351 91.0829 52.6715 91.171 52.7724C90.9259 52.1515 90.6839 51.6179 90.5 51.25C90.8781 52.0062 91.3332 52.9585 91.171 52.7724C91.7031 54.1207 92.25 55.8807 92.25 57.25C92.25 59.25 91.75 61.25 91.5 62C90.9167 63.25 89.1 65.95 86.5 66.75C85.5833 67.0833 83.5 67.75 82.5 67.75L80.75 66C82.0833 66.1667 85.25 66.05 87.25 64.25C89.25 62.45 90.0833 60.6667 90.25 60C90.5 58.9167 90.8 56.3 90 54.5C89.2 52.7 88.1667 51.5833 87.75 51.25C87.3333 50.8333 85.95 49.85 83.75 49.25H67.5L61.75 43.5Z" fill="#685FFF"/>
<path d="M59.5 45L61 44L67.5 50.5H84.25C85.65 50.7 87.5833 52.3333 88.25 53.25C88.75 53.75 89.5 55.45 89.5 57.25C89.5 59.05 88.8333 60.75 88.5 61.5C88.0833 62 87.2 62.95 86 63.75C85.3226 64.2016 84.5336 64.3027 83.75 64.2601C82.5833 64.2567 81.5 64 79.5 63.25C78.4289 62.8483 76.35 61.1 75.75 60.5C77.3333 61.25 80.85 62.75 82.25 62.75C83.65 62.75 85 62.0833 85.5 61.75C86.0833 61.4167 87.3 60.05 87.5 57.25C87.7 54.45 84.9167 52.5833 83.5 52H66.75L59.5 45Z" fill="#685FFF"/>
<path d="M72 56.5V57.5H80.5V56.5H72Z" fill="#685FFF"/>
<path fill-rule="evenodd" clip-rule="evenodd" d="M82 59C83.1046 59 84 58.1046 84 57C84 55.8954 83.1046 55 82 55C80.8954 55 80 55.8954 80 57C80 58.1046 80.8954 59 82 59ZM82 58C82.5523 58 83 57.5523 83 57C83 56.4477 82.5523 56 82 56C81.4477 56 81 56.4477 81 57C81 57.5523 81.4477 58 82 58Z" fill="#685FFF"/>
<path d="M40 43.5L38.5 42.5L34.25 47.25H18C16.5 47.4167 13.1 48.45 11.5 51.25C10.9371 52.2351 10.6671 52.6715 10.579 52.7724C10.8241 52.1515 11.0661 51.6179 11.25 51.25C10.8719 52.0062 10.4168 52.9585 10.579 52.7724C10.0469 54.1207 9.5 55.8807 9.5 57.25C9.5 59.25 10 61.25 10.25 62C10.8333 63.25 12.65 65.95 15.25 66.75C16.1667 67.0833 18.25 67.75 19.25 67.75L21 66C19.6667 66.1667 16.5 66.05 14.5 64.25C12.5 62.45 11.6667 60.6667 11.5 60C11.25 58.9167 10.95 56.3 11.75 54.5C12.55 52.7 13.5833 51.5833 14 51.25C14.4167 50.8333 15.8 49.85 18 49.25H34.25L40 43.5Z" fill="#685FFF"/>
<path d="M42.25 45L40.75 44L34.25 50.5H17.5C16.1 50.7 14.1667 52.3333 13.5 53.25C13 53.75 12.25 55.45 12.25 57.25C12.25 59.05 12.9167 60.75 13.25 61.5C13.6667 62 14.55 62.95 15.75 63.75C16.4274 64.2016 17.2164 64.3027 18 64.2601C19.1667 64.2567 20.25 64 22.25 63.25C23.3211 62.8483 25.4 61.1 26 60.5C24.4167 61.25 20.9 62.75 19.5 62.75C18.1 62.75 16.75 62.0833 16.25 61.75C15.6667 61.4167 14.45 60.05 14.25 57.25C14.05 54.45 16.8333 52.5833 18.25 52H35L42.25 45Z" fill="#685FFF"/>
<path d="M29.75 56.5V57.5H21.25V56.5H29.75Z" fill="#685FFF"/>
<path fill-rule="evenodd" clip-rule="evenodd" d="M19.75 59C18.6454 59 17.75 58.1046 17.75 57C17.75 55.8954 18.6454 55 19.75 55C20.8546 55 21.75 55.8954 21.75 57C21.75 58.1046 20.8546 59 19.75 59ZM19.75 58C19.1977 58 18.75 57.5523 18.75 57C18.75 56.4477 19.1977 56 19.75 56C20.3023 56 20.75 56.4477 20.75 57C20.75 57.5523 20.3023 58 19.75 58Z" fill="#685FFF"/>
<path d="M54.5 56H53.5V87.5H54.5V56Z" fill="#685FFF"/>
<path fill-rule="evenodd" clip-rule="evenodd" d="M54 91.5C55.1046 91.5 56 90.6046 56 89.5C56 88.3954 55.1046 87.5 54 87.5C52.8954 87.5 52 88.3954 52 89.5C52 90.6046 52.8954 91.5 54 91.5ZM54 90.5C54.5523 90.5 55 90.0523 55 89.5C55 88.9477 54.5523 88.5 54 88.5C53.4477 88.5 53 88.9477 53 89.5C53 90.0523 53.4477 90.5 54 90.5Z" fill="#685FFF"/>
<path d="M58.25 49V46.25L78 64.75C81.25 67.5 81.9167 71.8333 82 73.5C82 73.5 82.0374 74.2633 82 74.75C81.931 75.6475 81.5 77 81.5 77C81.25 78.25 81 78.9 80 80.5C79 82.1 77.25 83.3333 76.5 83.75C75.4167 84.25 72.7 85.25 70.5 85.25C68.3 85.25 66.5833 86.5833 66 87.25C65.6667 87.5833 65 88.65 65 90.25C65 91.85 65.6667 92.9167 66 93.25C66.3333 93.5833 67.25 94.25 68.25 94.25C69.25 94.25 70.5 93.75 71 93.5L73 92.25C70.8 95.45 67.75 95.4167 66.5 95C65.9167 94.75 64.65 94.1 64.25 93.5C63.75 92.75 63.5 91.25 63.5 90C63.5 89 64.1667 87.4167 64.5 86.75C65.5 84.75 68.25 83.9167 69.5 83.75C70 83.6667 71.25 83.45 72.25 83.25C73.25 83.05 74.5 82.5 75 82.25L76.5 81.25L77.5 80.25C79.1 79.05 79.8333 76.3333 80 75.25V74.25V72.25C80 69.75 77.3333 66.8333 76 65.75L58.25 49Z" fill="#685FFF"/>
<path d="M55.5 46H57V50L77.75 69.25C78.1667 69.8333 79 71.5 79 73.5C79 75.5 78 77.5 77.5 78.25C77 79.0833 75.5 80.9 73.5 81.5L71.25 82C69.6667 82.1667 66.1 82.95 64.5 84.75C62.9 86.55 62.5 88.1667 62.5 88.75V90.5C62.75 91.5833 63.7 93.8 65.5 94C67.3 94.2 68.9891 94.0833 69.6087 94C70.4891 93.75 72.3 92.85 72.5 91.25C72.7 89.65 73.25 90.4167 73.5 91C73.5 91.3333 73.45 92.15 73.25 92.75C73.05 93.35 72.6667 93.8333 72.5 94C72 94.5 70.25 95.5 67.25 95.5C66.3333 95.5 64.2 95.25 63 94.25C61.8 93.25 61.3333 91.8333 61.25 91.25C61.0833 90.6667 60.85 89 61.25 87C61.5833 86.0833 62.65 84 64.25 83C65.85 82 66.9167 81.5833 67.25 81.5L70 80.75C71.1667 80.5833 73.95 79.8 75.75 78C77.55 76.2 77.3333 72.75 77 71.25L76.5 70.5L55.5 51V46Z" fill="#685FFF"/>
<path d="M53 52.25L72.75 71.25C73.5 72.25 74.45 74.65 72.25 76.25L71 77C70 77.4167 67.518 78.1071 65.75 78.5C63.5 79 61.25 81.3333 60.25 82.5C59.4167 83.6667 58 86.5 58 89.5C58 92.5 59.8333 95.25 60.75 96.25C61.75 97.1667 64.45 98.95 67.25 98.75C70.05 98.55 72.0833 97.0833 73 96C73.4167 95.3333 74.4 92.75 74 89.75C73.8333 89.25 73.35 87.9 72.75 87.5C72.15 87.1 71.9167 87.6667 71.75 88C71.6667 88.3333 71.65 89.05 72.25 90.25C72.85 91.45 71.8333 94 71.25 95C70.3333 96 67.65 97.65 64.25 96.25C60.85 94.85 60 91.8333 60 90.5C59.9167 88.5 60.0871 84.9084 62.25 83C66.5 79.25 68.0537 79.7991 70.25 79.25C72.25 78.75 73.75 77.3333 74.75 76.5C75.4167 75.4167 76 73.5 74.75 70.5L67.25 63.25L54.75 51.75V46.5H53V52.25Z" fill="#685FFF"/>
<path d="M53 45V46.5H54.75L53 45Z" fill="#685FFF"/>
<path fill-rule="evenodd" clip-rule="evenodd" d="M55 47C56.1046 47 57 46.1046 57 45C57 43.8954 56.1046 43 55 43C53.8954 43 53 43.8954 53 45C53 46.1046 53.8954 47 55 47ZM55 46C55.5523 46 56 45.5523 56 45C56 44.4477 55.5523 44 55 44C54.4477 44 54 44.4477 54 45C54 45.5523 54.4477 46 55 46Z" fill="#685FFF"/>
<path d="M43.2666 49V46.25L23.5166 64.75C20.2666 67.5 19.5999 71.8333 19.5166 73.5C19.5166 73.5 19.4792 74.2633 19.5166 74.75C19.5856 75.6475 20.0166 77 20.0166 77C20.2666 78.25 20.5166 78.9 21.5166 80.5C22.5166 82.1 24.2666 83.3333 25.0166 83.75C26.0999 84.25 28.8166 85.25 31.0166 85.25C33.2166 85.25 34.9333 86.5833 35.5166 87.25C35.8499 87.5833 36.5166 88.65 36.5166 90.25C36.5166 91.85 35.8499 92.9167 35.5166 93.25C35.1833 93.5833 34.2666 94.25 33.2666 94.25C32.2666 94.25 31.0166 93.75 30.5166 93.5L28.5166 92.25C30.7166 95.45 33.7666 95.4167 35.0166 95C35.5999 94.75 36.8666 94.1 37.2666 93.5C37.7666 92.75 38.0166 91.25 38.0166 90C38.0166 89 37.3499 87.4167 37.0166 86.75C36.0166 84.75 33.2666 83.9167 32.0166 83.75C31.5166 83.6667 30.2666 83.45 29.2666 83.25C28.2666 83.05 27.0166 82.5 26.5166 82.25L25.0166 81.25L24.0166 80.25C22.4166 79.05 21.6833 76.3333 21.5166 75.25V74.25V72.25C21.5166 69.75 24.1833 66.8333 25.5166 65.75L43.2666 49Z" fill="#685FFF"/>
<path d="M46.0166 46H44.5166V50L23.7666 69.25C23.3499 69.8333 22.5166 71.5 22.5166 73.5C22.5166 75.5 23.5166 77.5 24.0166 78.25C24.5166 79.0833 26.0166 80.9 28.0166 81.5L30.2666 82C31.8499 82.1667 35.4166 82.95 37.0166 84.75C38.6166 86.55 39.0166 88.1667 39.0166 88.75V90.5C38.7666 91.5833 37.8166 93.8 36.0166 94C34.2166 94.2 32.5275 94.0833 31.9079 94C31.0275 93.75 29.2166 92.85 29.0166 91.25C28.8166 89.65 28.2666 90.4167 28.0166 91C28.0166 91.3333 28.0666 92.15 28.2666 92.75C28.4666 93.35 28.8499 93.8333 29.0166 94C29.5166 94.5 31.2666 95.5 34.2666 95.5C35.1833 95.5 37.3166 95.25 38.5166 94.25C39.7166 93.25 40.1833 91.8333 40.2666 91.25C40.4333 90.6667 40.6666 89 40.2666 87C39.9333 86.0833 38.8666 84 37.2666 83C35.6666 82 34.5999 81.5833 34.2666 81.5L31.5166 80.75C30.3499 80.5833 27.5666 79.8 25.7666 78C23.9666 76.2 24.1833 72.75 24.5166 71.25L25.0166 70.5L46.0166 51V46Z" fill="#685FFF"/>
<path d="M48.5166 52.25L28.7666 71.25C28.0166 72.25 27.0666 74.65 29.2666 76.25L30.5166 77C31.5166 77.4167 33.9987 78.1071 35.7666 78.5C38.0166 79 40.2666 81.3333 41.2666 82.5C42.0999 83.6667 43.5166 86.5 43.5166 89.5C43.5166 92.5 41.6833 95.25 40.7666 96.25C39.7666 97.1667 37.0666 98.95 34.2666 98.75C31.4666 98.55 29.4333 97.0833 28.5166 96C28.0999 95.3333 27.1166 92.75 27.5166 89.75C27.6833 89.25 28.1666 87.9 28.7666 87.5C29.3666 87.1 29.5999 87.6667 29.7666 88C29.8499 88.3333 29.8666 89.05 29.2666 90.25C28.6666 91.45 29.6833 94 30.2666 95C31.1833 96 33.8666 97.65 37.2666 96.25C40.6666 94.85 41.5166 91.8333 41.5166 90.5C41.5999 88.5 41.4295 84.9084 39.2666 83C35.0166 79.25 33.4629 79.7991 31.2666 79.25C29.2666 78.75 27.7666 77.3333 26.7666 76.5C26.0999 75.4167 25.5166 73.5 26.7666 70.5L34.2666 63.25L46.7666 51.75V46.5H48.5166V52.25Z" fill="#685FFF"/>
<path d="M48.5166 45V46.5H46.7666L48.5166 45Z" fill="#685FFF"/>
<path fill-rule="evenodd" clip-rule="evenodd" d="M46.5 47C47.6046 47 48.5 46.1046 48.5 45C48.5 43.8954 47.6046 43 46.5 43C45.3954 43 44.5 43.8954 44.5 45C44.5 46.1046 45.3954 47 46.5 47ZM46.5 46C47.0523 46 47.5 45.5523 47.5 45C47.5 44.4477 47.0523 44 46.5 44C45.9477 44 45.5 44.4477 45.5 45C45.5 45.5523 45.9477 46 46.5 46Z" fill="#685FFF"/>
<path d="M51 44.5H50V96.5H51V44.5Z" fill="#685FFF"/>
<path fill-rule="evenodd" clip-rule="evenodd" d="M50.5 44.5C51.6046 44.5 52.5 43.6046 52.5 42.5C52.5 41.3954 51.6046 40.5 50.5 40.5C49.3954 40.5 48.5 41.3954 48.5 42.5C48.5 43.6046 49.3954 44.5 50.5 44.5ZM50.5 43.5C51.0523 43.5 51.5 43.0523 51.5 42.5C51.5 41.9477 51.0523 41.5 50.5 41.5C49.9477 41.5 49.5 41.9477 49.5 42.5C49.5 43.0523 49.9477 43.5 50.5 43.5Z" fill="#685FFF"/>
<path d="M50 6.5V33.75H51V6.5H50Z" fill="#685FFF"/>
<path fill-rule="evenodd" clip-rule="evenodd" d="M50.5 37.5C51.6046 37.5 52.5 36.6046 52.5 35.5C52.5 34.3954 51.6046 33.5 50.5 33.5C49.3954 33.5 48.5 34.3954 48.5 35.5C48.5 36.6046 49.3954 37.5 50.5 37.5ZM50.5 36.5C51.0523 36.5 51.5 36.0523 51.5 35.5C51.5 34.9477 51.0523 34.5 50.5 34.5C49.9477 34.5 49.5 34.9477 49.5 35.5C49.5 36.0523 49.9477 36.5 50.5 36.5Z" fill="#685FFF"/>
<path d="M47.25 14H50V15H46V8.75H47.25V14Z" fill="#685FFF"/>
<path d="M38.75 18.75H35V19.75H38.75V18.75Z" fill="#685FFF"/>
<path d="M47.25 14H50V15H46V8.75H47.25V14Z" stroke="black"/>
<path d="M38.75 18.75H35V19.75H38.75V18.75Z" stroke="black"/>
<path d="M42 19.75L37.25 15.75L37.75 15L42.25 18.75H49V19.75H42Z" fill="#685FFF"/>
<path d="M42.75 15.75V10.75H41.75V16.75H42H50.25V15.75H42.75Z" fill="#685FFF"/>
<path d="M47.5 24.5V30.75H46.25V25.25L44.75 23.5H43.5V29.75H42.5V23.5H39V26.25H38V23.5H35.5V22.25H45.25L47.5 24.5Z" fill="#685FFF"/>
<path fill-rule="evenodd" clip-rule="evenodd" d="M36 16C37.1046 16 38 15.1046 38 14C38 12.8954 37.1046 12 36 12C34.8954 12 34 12.8954 34 14C34 15.1046 34.8954 16 36 16ZM36 15C36.5523 15 37 14.5523 37 14C37 13.4477 36.5523 13 36 13C35.4477 13 35 13.4477 35 14C35 14.5523 35.4477 15 36 15Z" fill="#685FFF"/>
<path fill-rule="evenodd" clip-rule="evenodd" d="M33 21C34.1046 21 35 20.1046 35 19C35 17.8954 34.1046 17 33 17C31.8954 17 31 17.8954 31 19C31 20.1046 31.8954 21 33 21ZM33 20C33.5523 20 34 19.5523 34 19C34 18.4477 33.5523 18 33 18C32.4477 18 32 18.4477 32 19C32 19.5523 32.4477 20 33 20Z" fill="#685FFF"/>
<path fill-rule="evenodd" clip-rule="evenodd" d="M42 11C43.1046 11 44 10.1046 44 9C44 7.89543 43.1046 7 42 7C40.8954 7 40 7.89543 40 9C40 10.1046 40.8954 11 42 11ZM42 10C42.5523 10 43 9.55228 43 9C43 8.44772 42.5523 8 42 8C41.4477 8 41 8.44772 41 9C41 9.55228 41.4477 10 42 10Z" fill="#685FFF"/>
<path fill-rule="evenodd" clip-rule="evenodd" d="M46.5 9C47.6046 9 48.5 8.10457 48.5 7C48.5 5.89543 47.6046 5 46.5 5C45.3954 5 44.5 5.89543 44.5 7C44.5 8.10457 45.3954 9 46.5 9ZM46.5 8C47.0523 8 47.5 7.55228 47.5 7C47.5 6.44772 47.0523 6 46.5 6C45.9477 6 45.5 6.44772 45.5 7C45.5 7.55228 45.9477 8 46.5 8Z" fill="#685FFF"/>
<path fill-rule="evenodd" clip-rule="evenodd" d="M38.5 29C39.3284 29 40 28.3284 40 27.5C40 26.6716 39.3284 26 38.5 26C37.6716 26 37 26.6716 37 27.5C37 28.3284 37.6716 29 38.5 29ZM38.5 28.25C38.9142 28.25 39.25 27.9142 39.25 27.5C39.25 27.0858 38.9142 26.75 38.5 26.75C38.0858 26.75 37.75 27.0858 37.75 27.5C37.75 27.9142 38.0858 28.25 38.5 28.25Z" fill="#685FFF"/>
<path fill-rule="evenodd" clip-rule="evenodd" d="M43 32.5C43.8284 32.5 44.5 31.8284 44.5 31C44.5 30.1716 43.8284 29.5 43 29.5C42.1716 29.5 41.5 30.1716 41.5 31C41.5 31.8284 42.1716 32.5 43 32.5ZM43 31.75C43.4142 31.75 43.75 31.4142 43.75 31C43.75 30.5858 43.4142 30.25 43 30.25C42.5858 30.25 42.25 30.5858 42.25 31C42.25 31.4142 42.5858 31.75 43 31.75Z" fill="#685FFF"/>
<path fill-rule="evenodd" clip-rule="evenodd" d="M47 33.5C47.8284 33.5 48.5 32.8284 48.5 32C48.5 31.1716 47.8284 30.5 47 30.5C46.1716 30.5 45.5 31.1716 45.5 32C45.5 32.8284 46.1716 33.5 47 33.5ZM47 32.75C47.4142 32.75 47.75 32.4142 47.75 32C47.75 31.5858 47.4142 31.25 47 31.25C46.5858 31.25 46.25 31.5858 46.25 32C46.25 32.4142 46.5858 32.75 47 32.75Z" fill="#685FFF"/>
<path d="M53.5 14H50.75V15H54.75V8.75H53.5V14Z" fill="#685FFF"/>
<path d="M62 18.75H65.75V19.75H62V18.75Z" fill="#685FFF"/>
<path d="M53.5 14H50.75V15H54.75V8.75H53.5V14Z" stroke="black"/>
<path d="M62 18.75H65.75V19.75H62V18.75Z" stroke="black"/>
<path d="M58.75 19.75L63.5 15.75L63 15L58.5 18.75H51.75V19.75H58.75Z" fill="#685FFF"/>
<path d="M58 15.75V10.75H59V16.75H58.75H50.5V15.75H58Z" fill="#685FFF"/>
<path d="M53.25 24.5V30.75H54.5V25.25L56 23.5H57.25V29.75H58.25V23.5H61.75V26.25H62.75V23.5H65.25V22.25H55.5L53.25 24.5Z" fill="#685FFF"/>
<path fill-rule="evenodd" clip-rule="evenodd" d="M64.75 16C63.6454 16 62.75 15.1046 62.75 14C62.75 12.8954 63.6454 12 64.75 12C65.8546 12 66.75 12.8954 66.75 14C66.75 15.1046 65.8546 16 64.75 16ZM64.75 15C64.1977 15 63.75 14.5523 63.75 14C63.75 13.4477 64.1977 13 64.75 13C65.3023 13 65.75 13.4477 65.75 14C65.75 14.5523 65.3023 15 64.75 15Z" fill="#685FFF"/>
<path fill-rule="evenodd" clip-rule="evenodd" d="M67.75 21C66.6454 21 65.75 20.1046 65.75 19C65.75 17.8954 66.6454 17 67.75 17C68.8546 17 69.75 17.8954 69.75 19C69.75 20.1046 68.8546 21 67.75 21ZM67.75 20C67.1977 20 66.75 19.5523 66.75 19C66.75 18.4477 67.1977 18 67.75 18C68.3023 18 68.75 18.4477 68.75 19C68.75 19.5523 68.3023 20 67.75 20Z" fill="#685FFF"/>
<path fill-rule="evenodd" clip-rule="evenodd" d="M58.75 11C57.6454 11 56.75 10.1046 56.75 9C56.75 7.89543 57.6454 7 58.75 7C59.8546 7 60.75 7.89543 60.75 9C60.75 10.1046 59.8546 11 58.75 11ZM58.75 10C58.1977 10 57.75 9.55228 57.75 9C57.75 8.44772 58.1977 8 58.75 8C59.3023 8 59.75 8.44772 59.75 9C59.75 9.55228 59.3023 10 58.75 10Z" fill="#685FFF"/>
<path fill-rule="evenodd" clip-rule="evenodd" d="M54.25 9C53.1454 9 52.25 8.10457 52.25 7C52.25 5.89543 53.1454 5 54.25 5C55.3546 5 56.25 5.89543 56.25 7C56.25 8.10457 55.3546 9 54.25 9ZM54.25 8C53.6977 8 53.25 7.55228 53.25 7C53.25 6.44772 53.6977 6 54.25 6C54.8023 6 55.25 6.44772 55.25 7C55.25 7.55228 54.8023 8 54.25 8Z" fill="#685FFF"/>
<path fill-rule="evenodd" clip-rule="evenodd" d="M62.25 29C61.4216 29 60.75 28.3284 60.75 27.5C60.75 26.6716 61.4216 26 62.25 26C63.0784 26 63.75 26.6716 63.75 27.5C63.75 28.3284 63.0784 29 62.25 29ZM62.25 28.25C61.8358 28.25 61.5 27.9142 61.5 27.5C61.5 27.0858 61.8358 26.75 62.25 26.75C62.6642 26.75 63 27.0858 63 27.5C63 27.9142 62.6642 28.25 62.25 28.25Z" fill="#685FFF"/>
<path fill-rule="evenodd" clip-rule="evenodd" d="M57.75 32.5C56.9216 32.5 56.25 31.8284 56.25 31C56.25 30.1716 56.9216 29.5 57.75 29.5C58.5784 29.5 59.25 30.1716 59.25 31C59.25 31.8284 58.5784 32.5 57.75 32.5ZM57.75 31.75C57.3358 31.75 57 31.4142 57 31C57 30.5858 57.3358 30.25 57.75 30.25C58.1642 30.25 58.5 30.5858 58.5 31C58.5 31.4142 58.1642 31.75 57.75 31.75Z" fill="#685FFF"/>
<path fill-rule="evenodd" clip-rule="evenodd" d="M53.75 33.5C52.9216 33.5 52.25 32.8284 52.25 32C52.25 31.1716 52.9216 30.5 53.75 30.5C54.5784 30.5 55.25 31.1716 55.25 32C55.25 32.8284 54.5784 33.5 53.75 33.5ZM53.75 32.75C53.3358 32.75 53 32.4142 53 32C53 31.5858 53.3358 31.25 53.75 31.25C54.1642 31.25 54.5 31.5858 54.5 32C54.5 32.4142 54.1642 32.75 53.75 32.75Z" fill="#685FFF"/>
<path fill-rule="evenodd" clip-rule="evenodd" d="M50.5 100C51.6046 100 52.5 99.1046 52.5 98C52.5 96.8954 51.6046 96 50.5 96C49.3954 96 48.5 96.8954 48.5 98C48.5 99.1046 49.3954 100 50.5 100ZM50.5 99C51.0523 99 51.5 98.5523 51.5 98C51.5 97.4477 51.0523 97 50.5 97C49.9477 97 49.5 97.4477 49.5 98C49.5 98.5523 49.9477 99 50.5 99Z" fill="#685FFF"/>
<path d="M36 67L40.75 62.5L41.5 63.25L37 67.5V72.5H36V67Z" fill="#685FFF"/>
<path fill-rule="evenodd" clip-rule="evenodd" d="M36.5 76C37.6046 76 38.5 75.1046 38.5 74C38.5 72.8954 37.6046 72 36.5 72C35.3954 72 34.5 72.8954 34.5 74C34.5 75.1046 35.3954 76 36.5 76ZM36.5 75C37.0523 75 37.5 74.5523 37.5 74C37.5 73.4477 37.0523 73 36.5 73C35.9477 73 35.5 73.4477 35.5 74C35.5 74.5523 35.9477 75 36.5 75Z" fill="#685FFF"/>
<path d="M65 41.5V40C65.3333 40 66.55 39.85 68.75 39.25C70.95 38.65 75.5 35 77.5 33.25C78.3333 32.3333 80.2 30 81 28C81.8 26 81.5 22.8333 81.25 21.5C81.0833 20.8333 80.8 18.95 81 16.75C81.2 14.55 83.75 13.3333 85 13L85.5 14.25L84.25 15.25C83.5 15.5 82.2 16.7 83 19.5C83.8 22.3 83.6667 25.6667 83.5 27C83.4167 27.75 82.7 30.5 79.5 34.5C76.3 38.5 70.5833 40.75 68.25 41.5H65Z" fill="#685FFF"/>
<path fill-rule="evenodd" clip-rule="evenodd" d="M86.5 14.5C87.6046 14.5 88.5 13.6046 88.5 12.5C88.5 11.3954 87.6046 10.5 86.5 10.5C85.3954 10.5 84.5 11.3954 84.5 12.5C84.5 13.6046 85.3954 14.5 86.5 14.5ZM86.5 13.5C87.0523 13.5 87.5 13.0523 87.5 12.5C87.5 11.9477 87.0523 11.5 86.5 11.5C85.9477 11.5 85.5 11.9477 85.5 12.5C85.5 13.0523 85.9477 13.5 86.5 13.5Z" fill="#685FFF"/>
<path d="M74.5 31.0001C73.5 32.4001 68.5833 36.2501 66.25 38.0001C66.3333 38.2501 66.85 38.7 68.25 38.5C69.65 38.3 73.3333 35.5833 75 34.25C75.9167 33.1667 77.5 31.5 78.75 29.25C80 27 79.75 24.3333 79.75 22.75C79.6667 21.75 79.55 19.2 79.75 17.0001C79.95 14.8002 81.6667 13.2501 82.5 12.75C82.8333 12.5 83.8 12 85 12C86.2 12 85.6667 11.1668 85.25 10.7501C80.25 10.3501 78.1667 14.7501 77.75 17.0001C77.75 17.0001 77.75 26.5835 77.25 27.2501C76.75 27.9168 75.5 29.6001 74.5 31.0001Z" fill="#685FFF"/>
<path d="M36 41.5V40C35.6667 40 34.45 39.85 32.25 39.25C30.05 38.65 25.5 35 23.5 33.25C22.6667 32.3333 20.8 30 20 28C19.2 26 19.5 22.8333 19.75 21.5C19.9167 20.8333 20.2 18.95 20 16.75C19.8 14.55 17.25 13.3333 16 13L15.5 14.25L16.75 15.25C17.5 15.5 18.8 16.7 18 19.5C17.2 22.3 17.3333 25.6667 17.5 27C17.5833 27.75 18.3 30.5 21.5 34.5C24.7 38.5 30.4167 40.75 32.75 41.5H36Z" fill="#685FFF"/>
<path fill-rule="evenodd" clip-rule="evenodd" d="M14.5 14.5C13.3954 14.5 12.5 13.6046 12.5 12.5C12.5 11.3954 13.3954 10.5 14.5 10.5C15.6046 10.5 16.5 11.3954 16.5 12.5C16.5 13.6046 15.6046 14.5 14.5 14.5ZM14.5 13.5C13.9477 13.5 13.5 13.0523 13.5 12.5C13.5 11.9477 13.9477 11.5 14.5 11.5C15.0523 11.5 15.5 11.9477 15.5 12.5C15.5 13.0523 15.0523 13.5 14.5 13.5Z" fill="#685FFF"/>
<path d="M26.5 31.0001C27.5 32.4001 32.4167 36.2501 34.75 38.0001C34.6667 38.2501 34.15 38.7 32.75 38.5C31.35 38.3 27.6667 35.5833 26 34.25C25.0833 33.1667 23.5 31.5 22.25 29.25C21 27 21.25 24.3333 21.25 22.75C21.3333 21.75 21.45 19.2 21.25 17.0001C21.05 14.8002 19.3333 13.2501 18.5 12.75C18.1667 12.5 17.2 12 16 12C14.8 12 15.3333 11.1668 15.75 10.7501C20.75 10.3501 22.8333 14.7501 23.25 17.0001C23.25 17.0001 23.25 26.5835 23.75 27.2501C24.25 27.9168 25.5 29.6001 26.5 31.0001Z" fill="#685FFF"/>
<path d="M36.1816 34.5021V41.7484L33.8121 40.3549V35.8956C32.7261 34.8737 30.258 32.4954 29.0732 31.1576C27.8885 29.8198 27.1975 27.0699 27 25.8622V20.8455C27 19.2847 27.5924 16.4791 27.8885 15.2714C28.1847 14.3424 29.1917 11.9269 30.8503 9.69728C32.5089 7.46764 35.0955 5.4238 36.1815 4.68058C37.5637 3.84447 40.8019 2.00501 42.6975 1.33612C44.593 0.667223 48.621 0.5 50.3981 0.5V3.28705H46.2516C43.586 3.84447 37.3664 6.12985 33.8122 10.8121C30.2581 15.4944 29.7644 21.1242 29.9619 23.3538C29.9619 29.3739 34.1084 33.2943 36.1816 34.5021Z" fill="#685FFF"/>
<path d="M64.3184 34.5021V41.7484L66.6879 40.3549V35.8956C67.7739 34.8737 70.242 32.4954 71.4268 31.1576C72.6115 29.8198 73.3025 27.0699 73.5 25.8622V20.8455C73.5 19.2847 72.9076 16.4791 72.6115 15.2714C72.3153 14.3424 71.3083 11.9269 69.6497 9.69728C67.9911 7.46764 65.4045 5.4238 64.3185 4.68058C62.9363 3.84447 59.6981 2.00501 57.8025 1.33612C55.907 0.667223 51.879 0.5 50.1019 0.5V3.28705H54.2484C56.914 3.84447 63.1336 6.12985 66.6878 10.8121C70.2419 15.4944 70.7356 21.1242 70.5381 23.3538C70.5381 29.3739 66.3916 33.2943 64.3184 34.5021Z" fill="#685FFF"/>
<path d="M92.25 45.75L90.75 44.75L91.75 42.75C91.9167 42.3333 92.3 41.15 92.5 39.75C92.7 38.35 92.0833 37 91.75 36.5C91.25 35.75 89.75 34.05 87.75 33.25C85.75 32.45 83.75 32.5833 83 32.75L84.25 31H86C88.8 31.2 91.1667 32.9167 92 33.75C94.2 35.35 94.3333 38.3333 94.25 40C94.25 41.6 93 44.75 92.25 45.75Z" fill="#685FFF"/>
<path d="M81.25 39.5V40.5H84.75V39.5H81.25Z" fill="#685FFF"/>
<path fill-rule="evenodd" clip-rule="evenodd" d="M86.25 42C87.3546 42 88.25 41.1046 88.25 40C88.25 38.8954 87.3546 38 86.25 38C85.1454 38 84.25 38.8954 84.25 40C84.25 41.1046 85.1454 42 86.25 42ZM86.25 41C86.8023 41 87.25 40.5523 87.25 40C87.25 39.4477 86.8023 39 86.25 39C85.6977 39 85.25 39.4477 85.25 40C85.25 40.5523 85.6977 41 86.25 41Z" fill="#685FFF"/>
<path d="M74 42.4979H71L71.5 41.4976C75.9 40.8976 79.6667 36.9143 81 34.9976C81.3333 34.5809 82.7 33.7 84.5 33.5C86.3 33.3 88.1667 34.2475 89 34.7475C89.8333 35.2475 91.55 36.8475 91.75 39.2475C91.95 41.6475 90.6667 43.5809 90 44.2475L88.5 43.2475C89.0833 42.5809 90.15 40.7975 89.75 38.9975C89.35 37.1975 87.75 36.0811 87 35.7479C85.25 35.25 83.5 35.5 82.5 36.25C79.3 40.65 75.6667 42.0813 74 42.4979Z" fill="#685FFF"/>
<path d="M86 28L85 30C86 30 87.75 30.3333 88.5 30.5C90.5833 31.3333 94.85 33.95 95.25 37.75C95.65 41.55 93.9167 44.8333 93 46L94.75 47.25C95.9167 45.5 98.2 41.4 97 36C95.8 30.6 89.0833 28.1667 86 28Z" fill="#685FFF"/>
<path d="M8.08887 45.75L9.58887 44.75L8.58887 42.75C8.4222 42.3333 8.03887 41.15 7.83887 39.75C7.63887 38.35 8.25553 37 8.58887 36.5C9.08887 35.75 10.5889 34.05 12.5889 33.25C14.5889 32.45 16.5889 32.5833 17.3389 32.75L16.0889 31H14.3389C11.5389 31.2 9.1722 32.9167 8.33887 33.75C6.13887 35.35 6.00553 38.3333 6.08887 40C6.08887 41.6 7.33887 44.75 8.08887 45.75Z" fill="#685FFF"/>
<path d="M19.0889 39.5V40.5H15.5889V39.5H19.0889Z" fill="#685FFF"/>
<path fill-rule="evenodd" clip-rule="evenodd" d="M14.0889 42C12.9843 42 12.0889 41.1046 12.0889 40C12.0889 38.8954 12.9843 38 14.0889 38C15.1934 38 16.0889 38.8954 16.0889 40C16.0889 41.1046 15.1934 42 14.0889 42ZM14.0889 41C13.5366 41 13.0889 40.5523 13.0889 40C13.0889 39.4477 13.5366 39 14.0889 39C14.6412 39 15.0889 39.4477 15.0889 40C15.0889 40.5523 14.6412 41 14.0889 41Z" fill="#685FFF"/>
<path d="M26.3389 42.4979H29.3389L28.8389 41.4976C24.4389 40.8976 20.6722 36.9143 19.3389 34.9976C19.0055 34.5809 17.6389 33.7 15.8389 33.5C14.0389 33.3 12.1722 34.2475 11.3389 34.7475C10.5055 35.2475 8.78887 36.8475 8.58887 39.2475C8.38887 41.6475 9.6722 43.5809 10.3389 44.2475L11.8389 43.2475C11.2555 42.5809 10.1889 40.7975 10.5889 38.9975C10.9889 37.1975 12.5889 36.0811 13.3389 35.7479C15.0889 35.25 16.8389 35.5 17.8389 36.25C21.0389 40.65 24.6722 42.0813 26.3389 42.4979Z" fill="#685FFF"/>
<path d="M14.3389 28L15.3389 30C14.3389 30 12.5889 30.3333 11.8389 30.5C9.75553 31.3333 5.48887 33.95 5.08887 37.75C4.68887 41.55 6.4222 44.8333 7.33887 46L5.58887 47.25C4.4222 45.5 2.13887 41.4 3.33887 36C4.53887 30.6 11.2555 28.1667 14.3389 28Z" fill="#685FFF"/>
</svg>
