<svg width="16" height="16" viewBox="0 0 16 16" fill="none" xmlns="http://www.w3.org/2000/svg">
<path fill-rule="evenodd" clip-rule="evenodd" d="M6.57735 2.96593C6.95475 2.58171 7.46661 2.36585 8.00033 2.36585C8.53406 2.36585 9.04592 2.58171 9.42332 2.96593C9.80072 3.35015 10.0127 3.87126 10.0127 4.41463V7.14634C10.0127 7.68971 9.80072 8.21083 9.42332 8.59505C9.04592 8.97927 8.53406 9.19512 8.00033 9.19512C7.46661 9.19512 6.95475 8.97927 6.57735 8.59505C6.19995 8.21083 5.98793 7.68971 5.98793 7.14634V4.41463C5.98793 3.87126 6.19995 3.35015 6.57735 2.96593ZM9.28386 1.25992C8.87693 1.08832 8.44079 1 8.00033 1C7.11079 1 6.25769 1.35975 5.62869 2.00012C4.99969 2.64049 4.64632 3.50902 4.64632 4.41463V7.14634C4.64632 8.05196 4.99969 8.92049 5.62869 9.56085C6.25769 10.2012 7.11079 10.561 8.00033 10.561C8.88988 10.561 9.74298 10.2012 10.372 9.56085C11.001 8.92049 11.3544 8.05196 11.3544 7.14634V4.41463C11.3544 3.96622 11.2676 3.52219 11.099 3.10791C10.9305 2.69363 10.6834 2.3172 10.372 2.00012C10.0605 1.68305 9.69079 1.43152 9.28386 1.25992ZM3.35167 8H2C2.15255 9.38557 2.76308 10.5065 3.73146 11.4924C4.69984 12.4782 5.96856 13.0998 7.32953 13.2551V15H5V16H11V15H8.67114V13.2551C10.032 13.0997 11.3006 12.478 12.2688 11.4922C13.237 10.5063 13.8475 9.38546 14 8H12.6477C12.4851 9.13692 11.926 10.0055 11.0725 10.7572C10.219 11.5088 9.12817 11.9224 7.99966 11.9224C6.87116 11.9224 5.78038 11.5088 4.92687 10.7572C4.07337 10.0055 3.5142 9.13692 3.35167 8Z" fill="#B6B6B6"/>
</svg>
