<svg width="24" height="32" viewBox="0 0 24 32" fill="none" xmlns="http://www.w3.org/2000/svg">
    <path d="M9 19.9995C9.15906 19.9995 9.31132 20.0629 9.42383 20.1753C9.53628 20.2877 9.59953 20.4401 9.59961 20.5991V21.1997H10.2002C10.6775 21.1998 11.1351 21.3895 11.4727 21.7271C11.8101 22.0646 12 22.5222 12 22.9995V30.1997C11.9999 30.677 11.8102 31.1347 11.4727 31.4722C11.1351 31.8097 10.6775 31.9995 10.2002 31.9995H1.7998C1.3225 31.9995 0.864859 31.8097 0.527344 31.4722C0.189844 31.1347 7.3828e-05 30.677 0 30.1997V22.9995C0 22.5222 0.189866 22.0646 0.527344 21.7271C0.864863 21.3895 1.32249 21.1998 1.7998 21.1997H2.40039V20.5991C2.40047 20.4401 2.46372 20.2877 2.57617 20.1753C2.68868 20.0629 2.84094 19.9995 3 19.9995C3.15906 19.9995 3.31132 20.0629 3.42383 20.1753C3.53628 20.2877 3.59953 20.4401 3.59961 20.5991V21.1997H8.40039V20.5991C8.40047 20.4401 8.46372 20.2877 8.57617 20.1753C8.68868 20.0629 8.84094 19.9995 9 19.9995ZM21.0098 19.604C22.5423 20.9452 23.025 23.2001 23.0908 25.0728C23.1246 26.0336 23.0511 26.9533 22.9229 27.7026C22.8587 28.0772 22.7793 28.4195 22.6885 28.7085C22.657 28.8086 22.6194 28.9088 22.5801 29.0073C22.618 29.0955 22.6502 29.1825 22.6738 29.2651C22.7461 29.5184 22.7783 29.7906 22.7783 30.0503C22.7783 30.3102 22.7462 30.5829 22.6738 30.8364C22.6043 31.0798 22.4803 31.3649 22.2559 31.5894L21.1953 30.5288C21.1728 30.5514 21.2003 30.5334 21.2314 30.4243C21.2598 30.325 21.2783 30.1935 21.2783 30.0503C21.2783 30.0091 21.2734 29.9689 21.2705 29.9302C21.0927 30.0348 20.9175 30.2098 20.8242 30.4897L19.4004 30.0151C19.7538 28.9548 20.5836 28.5077 21.2197 28.3569C21.2305 28.3262 21.2456 28.294 21.2568 28.2583C21.3228 28.0481 21.3887 27.7745 21.4443 27.4497C21.5555 26.8 21.6219 25.9828 21.5918 25.1255C21.5298 23.3617 21.0699 21.6504 20.0215 20.7329L21.0098 19.604ZM1.2002 24.7993V30.1997C1.20027 30.3587 1.26352 30.5111 1.37598 30.6235C1.48845 30.736 1.64076 30.7993 1.7998 30.7993H10.2002C10.3592 30.7993 10.5116 30.736 10.624 30.6235C10.7365 30.5111 10.7997 30.3587 10.7998 30.1997V24.7993H1.2002ZM13.8154 17.1948C14.2287 17.1949 14.6417 17.2408 15.0449 17.3315L17.6348 17.9136C18.1308 18.0254 18.6141 18.2628 18.9434 18.6558C19.2847 19.0634 19.4181 19.5947 19.2793 20.1733L19.2812 20.1743L17.7881 27.5073C17.7862 27.5167 17.7836 27.5273 17.7812 27.5366C17.6165 28.1804 17.4793 28.7197 17.3125 29.1411C17.1384 29.5804 16.9085 29.953 16.5254 30.2349C16.2148 30.4629 15.892 30.5659 15.5771 30.6089C15.249 30.6534 14.9471 30.4233 14.9023 30.0952C14.8584 29.7673 15.0881 29.465 15.416 29.4204C15.5743 29.3987 15.6975 29.3547 15.8154 29.2681C15.9549 29.1652 16.0724 29.0138 16.1973 28.6987C16.3286 28.3669 16.4446 27.9189 16.6152 27.2524L18.1055 19.9351L18.1123 19.9058C18.1688 19.6836 18.118 19.5393 18.0234 19.4263C17.9106 19.2917 17.6934 19.1572 17.3711 19.0845L14.7812 18.5015C14.4646 18.4302 14.14 18.3941 13.8154 18.394H8.92383C8.59931 18.394 8.27463 18.4303 7.95801 18.5015L4.09375 19.3716C3.77072 19.4443 3.45005 19.2413 3.37695 18.9185C3.30461 18.5954 3.50704 18.2734 3.83008 18.2007L7.69434 17.3315C8.09755 17.2409 8.51055 17.1948 8.92383 17.1948H13.8154ZM3.11719 28.4106C3.23334 28.4338 3.34 28.4911 3.42383 28.5747C3.50774 28.6586 3.56572 28.7659 3.58887 28.8823C3.612 28.9986 3.60004 29.1194 3.55469 29.229C3.50927 29.3386 3.43168 29.4326 3.33301 29.4985C3.23441 29.5643 3.11853 29.5991 3 29.5991C2.84089 29.5991 2.68869 29.5358 2.57617 29.4233C2.46367 29.3108 2.40041 29.1586 2.40039 28.9995C2.40039 28.881 2.4352 28.7651 2.50098 28.6665C2.56691 28.5678 2.66087 28.4902 2.77051 28.4448C2.88009 28.3995 3.00087 28.3875 3.11719 28.4106ZM6.11719 28.4106C6.23334 28.4338 6.34 28.4911 6.42383 28.5747C6.50774 28.6586 6.56572 28.7659 6.58887 28.8823C6.612 28.9986 6.60004 29.1194 6.55469 29.229C6.50927 29.3386 6.43168 29.4326 6.33301 29.4985C6.23441 29.5643 6.11853 29.5991 6 29.5991C5.84089 29.5991 5.68869 29.5358 5.57617 29.4233C5.46367 29.3108 5.40041 29.1586 5.40039 28.9995C5.40039 28.881 5.4352 28.7651 5.50098 28.6665C5.56691 28.5678 5.66087 28.4902 5.77051 28.4448C5.88009 28.3995 6.00087 28.3875 6.11719 28.4106ZM9.11719 28.4106C9.23334 28.4338 9.34 28.4911 9.42383 28.5747C9.50774 28.6586 9.56572 28.7659 9.58887 28.8823C9.612 28.9986 9.60004 29.1194 9.55469 29.229C9.50927 29.3386 9.43168 29.4326 9.33301 29.4985C9.23441 29.5643 9.11853 29.5991 9 29.5991C8.84089 29.5991 8.68869 29.5358 8.57617 29.4233C8.46367 29.3108 8.40041 29.1586 8.40039 28.9995C8.40039 28.881 8.4352 28.7651 8.50098 28.6665C8.56691 28.5678 8.66087 28.4902 8.77051 28.4448C8.88009 28.3995 9.00087 28.3875 9.11719 28.4106ZM3.11719 26.0112C3.23344 26.0344 3.33998 26.0915 3.42383 26.1753C3.50766 26.2591 3.56567 26.3657 3.58887 26.4819C3.61198 26.5981 3.59993 26.7191 3.55469 26.8286C3.50927 26.9382 3.43168 27.0322 3.33301 27.0981C3.23437 27.164 3.11861 27.1997 3 27.1997C2.84103 27.1997 2.68866 27.1362 2.57617 27.0239C2.46365 26.9114 2.40039 26.7583 2.40039 26.5991C2.40045 26.4806 2.43514 26.3647 2.50098 26.2661C2.5669 26.1674 2.66088 26.0908 2.77051 26.0454C2.88014 26 3.0008 25.9881 3.11719 26.0112ZM6.11719 26.0112C6.23344 26.0344 6.33998 26.0915 6.42383 26.1753C6.50766 26.2591 6.56567 26.3657 6.58887 26.4819C6.61198 26.5981 6.59993 26.7191 6.55469 26.8286C6.50927 26.9382 6.43168 27.0322 6.33301 27.0981C6.23437 27.164 6.11861 27.1997 6 27.1997C5.84103 27.1997 5.68866 27.1362 5.57617 27.0239C5.46365 26.9114 5.40039 26.7583 5.40039 26.5991C5.40045 26.4806 5.43514 26.3647 5.50098 26.2661C5.5669 26.1674 5.66088 26.0908 5.77051 26.0454C5.88014 26 6.0008 25.9881 6.11719 26.0112ZM9.11719 26.0112C9.23344 26.0344 9.33998 26.0915 9.42383 26.1753C9.50766 26.2591 9.56567 26.3657 9.58887 26.4819C9.61198 26.5981 9.59993 26.7191 9.55469 26.8286C9.50927 26.9382 9.43168 27.0322 9.33301 27.0981C9.23437 27.164 9.11861 27.1997 9 27.1997C8.84103 27.1997 8.68866 27.1362 8.57617 27.0239C8.46365 26.9114 8.40039 26.7583 8.40039 26.5991C8.40045 26.4806 8.43514 26.3647 8.50098 26.2661C8.5669 26.1674 8.66088 26.0908 8.77051 26.0454C8.88014 26 9.0008 25.9881 9.11719 26.0112ZM1.7998 22.3999C1.64091 22.4 1.48842 22.4625 1.37598 22.5747C1.26345 22.6872 1.2002 22.8404 1.2002 22.9995V23.5991H10.7998V22.9995C10.7998 22.8404 10.7365 22.6872 10.624 22.5747C10.5116 22.4625 10.3591 22.4 10.2002 22.3999H1.7998ZM11.457 0.00341797C11.6439 0.0180619 11.8252 0.0792088 11.9824 0.181152C12.1396 0.283197 12.2689 0.423728 12.3584 0.588379C12.4478 0.753051 12.495 0.9381 12.4951 1.12549C12.4951 1.45823 12.35 1.75806 12.1201 1.96436V3.37646H15.8721C16.4688 3.37668 17.0419 3.61465 17.4639 4.03662C17.8857 4.45864 18.1229 5.03175 18.123 5.62842V13.1313C18.123 13.728 17.8855 14.3011 17.4639 14.7231C17.0419 15.1451 16.4688 15.3831 15.8721 15.3833H6.86719C6.27035 15.3832 5.69747 15.1451 5.27539 14.7231C4.8535 14.3011 4.61626 13.7281 4.61621 13.1313V5.62842C4.61633 5.0317 4.85353 4.45865 5.27539 4.03662C5.69744 3.61482 6.27049 3.37654 6.86719 3.37646H10.6191V1.96436C10.4794 1.83929 10.3727 1.68097 10.3096 1.50439C10.2466 1.32782 10.229 1.13789 10.2578 0.952637C10.2868 0.767375 10.3618 0.591891 10.4756 0.442871C10.5895 0.293921 10.739 0.174705 10.9102 0.0981445C11.0814 0.0217159 11.2701 -0.0110639 11.457 0.00341797ZM6.86719 4.87744C6.66859 4.87752 6.47751 4.95692 6.33691 5.09717C6.1963 5.23778 6.11731 5.42957 6.11719 5.62842V13.1313C6.11723 13.3303 6.19624 13.5219 6.33691 13.6626C6.47754 13.8031 6.66843 13.8822 6.86719 13.8823H15.8721C16.0707 13.8821 16.2618 13.803 16.4023 13.6626C16.5427 13.522 16.622 13.3301 16.6221 13.1313V5.62842C16.622 5.42967 16.5428 5.23776 16.4023 5.09717C16.2618 4.9568 16.0707 4.87765 15.8721 4.87744H6.86719ZM3.86621 11.6313H2.36523V7.12842H3.86621V11.6313ZM20.374 11.6313H18.873V7.12842H20.374V11.6313ZM9.11816 8.25439C9.41643 8.25458 9.70314 8.37356 9.91406 8.58447C10.1249 8.79543 10.244 9.08212 10.2441 9.38037C10.244 9.67844 10.1247 9.96537 9.91406 10.1763C9.70318 10.3869 9.41623 10.5052 9.11816 10.5054C8.8199 10.5053 8.53323 10.3871 8.32227 10.1763C8.11133 9.96533 7.99332 9.67867 7.99316 9.38037C7.99328 9.08222 8.11156 8.79541 8.32227 8.58447C8.5332 8.37379 8.82003 8.25451 9.11816 8.25439ZM13.6211 8.25439C13.9193 8.25464 14.2061 8.37362 14.417 8.58447C14.6276 8.7954 14.746 9.08228 14.7461 9.38037C14.7459 9.67844 14.6276 9.96537 14.417 10.1763C14.2061 10.3871 13.9192 10.5051 13.6211 10.5054C13.3228 10.5054 13.0362 10.387 12.8252 10.1763C12.6143 9.96533 12.4953 9.67867 12.4951 9.38037C12.4952 9.08206 12.6143 8.79544 12.8252 8.58447C13.0362 8.37369 13.3228 8.25439 13.6211 8.25439Z" fill="currentColor"/>
</svg>
