<svg width="22" height="32" viewBox="0 0 22 32" fill="none" xmlns="http://www.w3.org/2000/svg">
    <path d="M2.77344 21.9233C1.78981 22.7847 1.36411 24.3844 1.30664 26.019C1.27876 26.8148 1.34005 27.5745 1.44336 28.1782C1.495 28.4797 1.55645 28.7356 1.61816 28.9321C1.63172 28.9752 1.64785 29.0133 1.66016 29.0474C2.24012 29.1785 3.00948 29.5822 3.33496 30.5581L2.71875 30.7632L2.10254 30.9692C2.00162 30.6669 1.80042 30.4919 1.6084 30.396C1.60167 30.4524 1.5967 30.5139 1.59668 30.5767C1.59674 30.7121 1.61421 30.8379 1.6416 30.9341C1.67146 31.0384 1.69893 31.0637 1.68555 31.0503L0.766602 31.9692C0.56649 31.769 0.454818 31.5126 0.391602 31.2915C0.326012 31.0618 0.295955 30.8134 0.295898 30.5767C0.295933 30.3399 0.32606 30.0915 0.391602 29.8618C0.414442 29.7819 0.44605 29.6974 0.483398 29.6128C0.444887 29.5179 0.408651 29.4195 0.37793 29.3218C0.294759 29.0569 0.221139 28.7417 0.162109 28.397C0.0440294 27.7069 -0.0232386 26.8587 0.0078125 25.9731C0.0686122 24.244 0.514663 22.1733 1.91797 20.9448L2.77344 21.9233ZM19.3623 20.9448C20.7661 22.1732 21.2117 24.2438 21.2725 25.9731C21.3035 26.8588 21.2363 27.7068 21.1182 28.397C21.0591 28.7417 20.9855 29.0569 20.9023 29.3218C20.8716 29.4195 20.8354 29.5179 20.7969 29.6128C20.8343 29.6975 20.8658 29.7818 20.8887 29.8618C20.9543 30.0916 20.9843 30.3398 20.9844 30.5767C20.9843 30.8135 20.9543 31.0617 20.8887 31.2915C20.8254 31.5126 20.7139 31.769 20.5137 31.9692L19.5947 31.0503C19.5826 31.0625 19.6093 31.0367 19.6387 30.9341C19.6661 30.8379 19.6835 30.7122 19.6836 30.5767C19.6836 30.5138 19.6786 30.4525 19.6719 30.396C19.4801 30.492 19.2785 30.6672 19.1777 30.9692L18.5615 30.7632L17.9453 30.5581C18.2706 29.5826 19.0402 29.1787 19.6201 29.0474C19.6324 29.0134 19.6486 28.9751 19.6621 28.9321C19.7238 28.7356 19.7853 28.4797 19.8369 28.1782C19.9402 27.5745 20.0015 26.8149 19.9736 26.019C19.9162 24.3841 19.4909 22.7846 18.5068 21.9233L19.3623 20.9448ZM12.6943 18.6392C13.1077 18.6392 13.5206 18.6852 13.9238 18.7759L16.2793 19.3052C16.7447 19.41 17.2018 19.6331 17.5146 20.0063C17.8396 20.3944 17.9663 20.9001 17.835 21.4487L17.8369 21.4497L16.4551 28.2339C16.4531 28.2433 16.4506 28.2539 16.4482 28.2632C16.2961 28.8575 16.1693 29.3595 16.0137 29.7524C15.8507 30.1636 15.6333 30.5172 15.2695 30.7847C14.9751 31.0005 14.6691 31.0987 14.3721 31.1392C14.0443 31.1833 13.7412 30.9532 13.6963 30.6255C13.6518 30.2976 13.8823 29.9949 14.21 29.9497C14.3507 29.9305 14.4576 29.8915 14.5596 29.8169L14.6475 29.7417C14.7326 29.6543 14.8123 29.5258 14.8975 29.311C15.0177 29.0075 15.1242 28.5961 15.2822 27.979L16.6611 21.2095L16.667 21.1812C16.716 20.989 16.6729 20.8703 16.5947 20.7769C16.4983 20.662 16.3073 20.5418 16.0156 20.4761L13.6602 19.9458C13.3435 19.8746 13.0189 19.8384 12.6943 19.8384H8.25195C7.92744 19.8384 7.60274 19.8746 7.28613 19.9458L4.93066 20.4761C4.63928 20.5418 4.44792 20.6621 4.35156 20.7769C4.29305 20.8469 4.25395 20.9318 4.25879 21.0503L4.2793 21.1812L4.28516 21.2095L5.66309 27.979C5.82111 28.5963 5.92857 29.0065 6.04883 29.3101C6.13417 29.5253 6.21446 29.6532 6.2998 29.7407L6.3877 29.8169V29.8179C6.48865 29.8922 6.59439 29.9305 6.73535 29.9497C7.06343 29.9944 7.29438 30.2973 7.25 30.6255C7.20499 30.9532 6.90209 31.1834 6.57422 31.1392C6.27645 31.0987 5.97142 31.0006 5.67773 30.7847L5.54688 30.6802C5.25938 30.428 5.0753 30.1123 4.93262 29.7524C4.77686 29.3593 4.65019 28.8576 4.49805 28.2632C4.49565 28.2538 4.49316 28.2434 4.49121 28.2339L3.10938 21.4497L3.11133 21.4487C2.97994 20.9002 3.10691 20.3944 3.43164 20.0063C3.74436 19.6333 4.2017 19.4101 4.66699 19.3052L7.02246 18.7759C7.42565 18.6852 7.83868 18.6392 8.25195 18.6392H12.6943ZM16.7207 14.9243C16.7205 15.4762 16.5015 16.0066 16.1113 16.397C15.7209 16.7871 15.1906 17.0072 14.6387 17.0073H6.30762C5.75567 17.0071 5.22529 16.7872 4.83496 16.397C4.4449 16.0066 4.22576 15.4762 4.22559 14.9243V8.75928L5.61328 9.08545V14.9243C5.61346 15.1081 5.68749 15.2855 5.81738 15.4155C5.94732 15.5453 6.12397 15.6184 6.30762 15.6187H14.6387C14.8223 15.6186 14.9989 15.5452 15.1289 15.4155C15.2589 15.2855 15.3328 15.1082 15.333 14.9243V9.06689L16.7207 8.69678V14.9243ZM3.53125 13.5366H2.14258V9.37158H3.53125V13.5366ZM18.8037 13.5366H17.415V9.37158H18.8037V13.5366ZM8.39062 10.4126C8.66664 10.4126 8.93172 10.5222 9.12695 10.7173C9.32209 10.9125 9.43157 11.1776 9.43164 11.4536C9.43146 11.7295 9.32199 11.9948 9.12695 12.1899C8.93176 12.3848 8.66644 12.4946 8.39062 12.4946C8.11478 12.4944 7.8494 12.385 7.6543 12.1899C7.45931 11.9948 7.34979 11.7294 7.34961 11.4536C7.34968 11.1778 7.45947 10.9124 7.6543 10.7173C7.84939 10.5223 8.11478 10.4128 8.39062 10.4126ZM12.5557 10.4126C12.8317 10.4126 13.0967 10.5222 13.292 10.7173C13.4871 10.9125 13.5966 11.1776 13.5967 11.4536C13.5965 11.7295 13.4871 11.9948 13.292 12.1899C13.0968 12.3848 12.8315 12.4946 12.5557 12.4946C12.2798 12.4944 12.0144 12.385 11.8193 12.1899C11.6244 11.9948 11.5148 11.7294 11.5146 11.4536C11.5147 11.1778 11.6245 10.9124 11.8193 10.7173C12.0144 10.5222 12.2798 10.4128 12.5557 10.4126ZM14.3418 1.93115C15.8796 2.95134 16.9518 4.51858 17.3301 6.30029C17.9039 6.55466 18.2734 7.10179 18.2734 7.71045L13.1855 9.12842C12.9024 9.20548 12.6113 9.25146 12.3203 9.25146H8.4834C8.19253 9.25146 7.90118 9.20543 7.61816 9.12842L2.5459 7.71045C2.5459 7.09401 2.91528 6.55451 3.48926 6.29248C3.87096 4.51418 4.94249 2.95068 6.47754 1.93115L7.86133 5.66064C7.97139 5.96879 8.27043 6.16931 8.60059 6.16943H12.2178C12.548 6.16943 12.8469 5.96877 12.957 5.66064L14.3418 1.93115ZM8.05078 0.358887C9.58556 -0.119292 11.2338 -0.119332 12.7686 0.358887L12.085 4.74365C12.0299 5.12121 11.691 5.39893 11.2979 5.39893H9.5127C9.32455 5.39908 9.14276 5.33251 9 5.2124C8.85716 5.09222 8.76264 4.92605 8.73438 4.74365L8.05078 0.358887Z" fill="currentColor"/>
</svg>
